RobotoSerifMicroWide-Hairline.ufo
<glyph name="zero" format="2">
  <advance width="594"/>
  <unicode hex="0030"/>
  <outline>
    <contour>
      <point x="297" y="-11" type="curve" smooth="yes"/>
      <point x="447" y="-11"/>
      <point x="540" y="103"/>
      <point x="540" y="336" type="curve" smooth="yes"/>
      <point x="540" y="569"/>
      <point x="447" y="683"/>
      <point x="297" y="683" type="curve" smooth="yes"/>
      <point x="146" y="683"/>
      <point x="53" y="569"/>
      <point x="53" y="336" type="curve" smooth="yes"/>
      <point x="53" y="103"/>
      <point x="146" y="-11"/>
    </contour>
    <contour>
      <point x="297" y="28" type="curve" smooth="yes"/>
      <point x="156" y="28"/>
      <point x="108" y="134"/>
      <point x="108" y="336" type="curve" smooth="yes"/>
      <point x="108" y="538"/>
      <point x="156" y="644"/>
      <point x="297" y="644" type="curve" smooth="yes"/>
      <point x="437" y="644"/>
      <point x="485" y="538"/>
      <point x="485" y="336" type="curve" smooth="yes"/>
      <point x="485" y="134"/>
      <point x="437" y="28"/>
    </contour>
  </outline>
</glyph>
<glyph name="one" format="2">
  <advance width="594"/>
  <unicode hex="0031"/>
  <outline>
    <contour>
      <point x="363" y="71" type="curve" smooth="yes"/>
      <point x="363" y="675" type="line"/>
      <point x="321" y="675" type="line"/>
      <point x="295" y="590"/>
      <point x="237" y="568"/>
      <point x="108" y="565" type="curve"/>
      <point x="108" y="523" type="line"/>
      <point x="228" y="523"/>
      <point x="312" y="562"/>
      <point x="328" y="633" type="curve"/>
      <point x="314" y="619" type="line"/>
      <point x="314" y="71" type="line" smooth="yes"/>
      <point x="314" y="42"/>
      <point x="272" y="35"/>
      <point x="191" y="35" type="curve" smooth="yes"/>
      <point x="125" y="35" type="line"/>
      <point x="125" y="0" type="line"/>
      <point x="538" y="0" type="line"/>
      <point x="538" y="35" type="line"/>
      <point x="496" y="35" type="line"/>
      <point x="409" y="35"/>
      <point x="363" y="42"/>
    </contour>
  </outline>
</glyph>
<glyph name="less" format="2">
  <advance width="594"/>
  <unicode hex="003C"/>
  <outline>
    <contour>
      <point x="526" y="550" type="line"/>
      <point x="68" y="361" type="line"/>
      <point x="68" y="320" type="line"/>
      <point x="89" y="332" type="line"/>
      <point x="526" y="508" type="line"/>
    </contour>
    <contour>
      <point x="526" y="167" type="line"/>
      <point x="90" y="344" type="line"/>
      <point x="68" y="328" type="line"/>
      <point x="68" y="309" type="line"/>
      <point x="526" y="122" type="line"/>
    </contour>
  </outline>
</glyph>
<glyph name="A" format="2">
  <advance width="745"/>
  <unicode hex="0041"/>
  <anchor x="378" y="721" name="top"/>
  <anchor x="596" y="0" name="right"/>
  <anchor x="378" y="0" name="bottom"/>
  <outline>
    <contour>
      <point x="207" y="289" type="line"/>
      <point x="191" y="251" type="line"/>
      <point x="549" y="251" type="line"/>
      <point x="530" y="289" type="line"/>
    </contour>
    <contour>
      <point x="365" y="722" type="line"/>
      <point x="596" y="55" type="line"/>
      <point x="596" y="48"/>
      <point x="560" y="44"/>
      <point x="500" y="44" type="curve" smooth="yes"/>
      <point x="490" y="44" type="line"/>
      <point x="490" y="0" type="line"/>
      <point x="727" y="0" type="line"/>
      <point x="727" y="44" type="line"/>
      <point x="721" y="44" type="line" smooth="yes"/>
      <point x="677" y="44"/>
      <point x="649" y="55"/>
      <point x="630" y="108" type="curve" smooth="yes"/>
      <point x="413" y="722" type="line"/>
      <point x="330" y="722" type="line"/>
      <point x="115" y="108" type="line" smooth="yes"/>
      <point x="96" y="55"/>
      <point x="67" y="44"/>
      <point x="24" y="44" type="curve" smooth="yes"/>
      <point x="18" y="44" type="line"/>
      <point x="18" y="0" type="line"/>
      <point x="255" y="0" type="line"/>
      <point x="255" y="44" type="line"/>
      <point x="244" y="44" type="line" smooth="yes"/>
      <point x="185" y="44"/>
      <point x="149" y="54"/>
      <point x="149" y="67" type="curve"/>
      <point x="376" y="728" type="line"/>
    </contour>
  </outline>
</glyph>
<glyph name="I" format="2">
  <advance width="381"/>
  <unicode hex="0049"/>
  <anchor x="222" y="741" name="top"/>
  <anchor x="285" y="0" name="right"/>
  <anchor x="222" y="0" name="bottom"/>
  <outline>
    <contour>
      <point x="166" y="80" type="line" smooth="yes"/>
      <point x="166" y="51"/>
      <point x="127" y="44"/>
      <point x="76" y="44" type="curve" smooth="yes"/>
      <point x="54" y="44" type="line"/>
      <point x="54" y="0" type="line"/>
      <point x="327" y="0" type="line"/>
      <point x="327" y="44" type="line"/>
      <point x="305" y="44" type="line" smooth="yes"/>
      <point x="253" y="44"/>
      <point x="215" y="51"/>
      <point x="215" y="80" type="curve" smooth="yes"/>
      <point x="215" y="630" type="line" smooth="yes"/>
      <point x="215" y="659"/>
      <point x="253" y="666"/>
      <point x="305" y="666" type="curve" smooth="yes"/>
      <point x="327" y="666" type="line"/>
      <point x="327" y="710" type="line"/>
      <point x="54" y="710" type="line"/>
      <point x="54" y="666" type="line"/>
      <point x="76" y="666" type="line" smooth="yes"/>
      <point x="127" y="666"/>
      <point x="166" y="659"/>
      <point x="166" y="630" type="curve" smooth="yes"/>
    </contour>
  </outline>
</glyph>
<glyph name="J" format="2">
  <advance width="689"/>
  <unicode hex="004A"/>
  <anchor x="478" y="741" name="top"/>
  <outline>
    <contour>
      <point x="349" y="710" type="line"/>
      <point x="349" y="666" type="line"/>
      <point x="383" y="666" type="line" smooth="yes"/>
      <point x="434" y="666"/>
      <point x="473" y="659"/>
      <point x="473" y="630" type="curve" smooth="yes"/>
      <point x="473" y="209" type="line" smooth="yes"/>
      <point x="473" y="50"/>
      <point x="381" y="16"/>
      <point x="281" y="16" type="curve" smooth="yes"/>
      <point x="197" y="16"/>
      <point x="121" y="44"/>
      <point x="105" y="65" type="curve"/>
      <point x="74" y="64"/>
      <point x="78" y="31"/>
      <point x="134" y="11" type="curve"/>
      <point x="134" y="213" type="line"/>
      <point x="71" y="213" type="line"/>
      <point x="71" y="20" type="line"/>
      <point x="95" y="10"/>
      <point x="174" y="-25"/>
      <point x="281" y="-25" type="curve" smooth="yes"/>
      <point x="432" y="-25"/>
      <point x="522" y="40"/>
      <point x="522" y="209" type="curve" smooth="yes"/>
      <point x="522" y="630" type="line" smooth="yes"/>
      <point x="522" y="659"/>
      <point x="560" y="666"/>
      <point x="612" y="666" type="curve" smooth="yes"/>
      <point x="639" y="666" type="line"/>
      <point x="639" y="710" type="line"/>
    </contour>
  </outline>
</glyph>
<glyph name="N" format="2">
  <advance width="852"/>
  <unicode hex="004E"/>
  <anchor x="461" y="741" name="top"/>
  <anchor x="461" y="0" name="bottom"/>
  <outline>
    <contour>
      <point x="56" y="0" type="line"/>
      <point x="304" y="0" type="line"/>
      <point x="304" y="44" type="line"/>
      <point x="289" y="44" type="line" smooth="yes"/>
      <point x="254" y="44"/>
      <point x="202" y="47"/>
      <point x="202" y="54" type="curve"/>
      <point x="202" y="686" type="line"/>
      <point x="183" y="691" type="line"/>
      <point x="630" y="0" type="line"/>
      <point x="688" y="0" type="line"/>
      <point x="688" y="630" type="line" smooth="yes"/>
      <point x="688" y="659"/>
      <point x="726" y="666"/>
      <point x="778" y="666" type="curve" smooth="yes"/>
      <point x="790" y="666" type="line"/>
      <point x="790" y="710" type="line"/>
      <point x="542" y="710" type="line"/>
      <point x="542" y="666" type="line"/>
      <point x="557" y="666" type="line" smooth="yes"/>
      <point x="592" y="666"/>
      <point x="644" y="663"/>
      <point x="644" y="656" type="curve" smooth="yes"/>
      <point x="644" y="47" type="line"/>
      <point x="653" y="48" type="line"/>
      <point x="227" y="710" type="line"/>
      <point x="56" y="710" type="line"/>
      <point x="56" y="666" type="line"/>
      <point x="68" y="666" type="line" smooth="yes"/>
      <point x="120" y="666"/>
      <point x="158" y="659"/>
      <point x="158" y="630" type="curve" smooth="yes"/>
      <point x="158" y="80" type="line" smooth="yes"/>
      <point x="158" y="51"/>
      <point x="120" y="44"/>
      <point x="68" y="44" type="curve" smooth="yes"/>
      <point x="56" y="44" type="line"/>
    </contour>
  </outline>
</glyph>
<glyph name="P" format="2">
  <advance width="678"/>
  <unicode hex="0050"/>
  <outline>
    <contour>
      <point x="208" y="54" type="line" smooth="yes"/>
      <point x="208" y="47"/>
      <point x="258" y="44"/>
      <point x="309" y="44" type="curve" smooth="yes"/>
      <point x="325" y="44" type="line"/>
      <point x="325" y="0" type="line"/>
      <point x="54" y="0" type="line"/>
      <point x="54" y="44" type="line"/>
      <point x="66" y="44" type="line" smooth="yes"/>
      <point x="118" y="44"/>
      <point x="156" y="51"/>
      <point x="156" y="80" type="curve" smooth="yes"/>
      <point x="156" y="630" type="line" smooth="yes"/>
      <point x="156" y="659"/>
      <point x="118" y="666"/>
      <point x="66" y="666" type="curve" smooth="yes"/>
      <point x="54" y="666" type="line"/>
      <point x="54" y="710" type="line"/>
      <point x="402" y="710" type="line" smooth="yes"/>
      <point x="555" y="710"/>
      <point x="635" y="623"/>
      <point x="635" y="503" type="curve" smooth="yes"/>
      <point x="635" y="382"/>
      <point x="551" y="291"/>
      <point x="396" y="291" type="curve" smooth="yes"/>
      <point x="180" y="291" type="line"/>
      <point x="180" y="327" type="line"/>
      <point x="396" y="327" type="line" smooth="yes"/>
      <point x="524" y="327"/>
      <point x="580" y="401"/>
      <point x="580" y="503" type="curve" smooth="yes"/>
      <point x="580" y="608"/>
      <point x="524" y="673"/>
      <point x="402" y="673" type="curve" smooth="yes"/>
      <point x="208" y="673" type="line"/>
    </contour>
  </outline>
</glyph>
<glyph name="W" format="2">
  <advance width="1120"/>
  <unicode hex="0057"/>
  <anchor x="568" y="741" name="top"/>
  <outline>
    <contour>
      <point x="29" y="710" type="line"/>
      <point x="29" y="666" type="line"/>
      <point x="36" y="666" type="line" smooth="yes"/>
      <point x="79" y="666"/>
      <point x="114" y="652"/>
      <point x="129" y="593" type="curve" smooth="yes"/>
      <point x="287" y="-16" type="line"/>
      <point x="370" y="-16" type="line"/>
      <point x="573" y="673" type="line"/>
      <point x="555" y="657" type="line"/>
      <point x="759" y="-16" type="line"/>
      <point x="842" y="-16" type="line"/>
      <point x="992" y="597" type="line" smooth="yes"/>
      <point x="1005" y="656"/>
      <point x="1041" y="666"/>
      <point x="1084" y="666" type="curve" smooth="yes"/>
      <point x="1091" y="666" type="line"/>
      <point x="1091" y="710" type="line"/>
      <point x="853" y="710" type="line"/>
      <point x="853" y="666" type="line"/>
      <point x="863" y="666" type="line" smooth="yes"/>
      <point x="925" y="666"/>
      <point x="960" y="656"/>
      <point x="960" y="644" type="curve"/>
      <point x="801" y="-19" type="line"/>
      <point x="806" y="-17" type="line"/>
      <point x="589" y="710" type="line"/>
      <point x="541" y="710" type="line"/>
      <point x="328" y="-22" type="line"/>
      <point x="335" y="-17" type="line"/>
      <point x="161" y="655" type="line"/>
      <point x="161" y="662"/>
      <point x="196" y="666"/>
      <point x="258" y="666" type="curve" smooth="yes"/>
      <point x="268" y="666" type="line"/>
      <point x="268" y="710" type="line"/>
    </contour>
  </outline>
</glyph>
<glyph name="X" format="2">
  <advance width="802"/>
  <unicode hex="0058"/>
  <outline>
    <contour>
      <point x="46" y="666" type="line"/>
      <point x="63" y="666" type="line" smooth="yes"/>
      <point x="102" y="666"/>
      <point x="123" y="663"/>
      <point x="148" y="632" type="curve"/>
      <point x="372" y="357" type="line"/>
      <point x="381" y="350" type="line"/>
      <point x="619" y="54" type="line"/>
      <point x="619" y="47"/>
      <point x="570" y="44"/>
      <point x="532" y="44" type="curve" smooth="yes"/>
      <point x="514" y="44" type="line"/>
      <point x="514" y="0" type="line"/>
      <point x="768" y="0" type="line"/>
      <point x="768" y="44" type="line"/>
      <point x="744" y="44" type="line" smooth="yes"/>
      <point x="705" y="44"/>
      <point x="684" y="48"/>
      <point x="660" y="78" type="curve"/>
      <point x="412" y="380" type="line"/>
      <point x="400" y="390" type="line"/>
      <point x="188" y="657" type="line"/>
      <point x="188" y="663"/>
      <point x="237" y="666"/>
      <point x="275" y="666" type="curve" smooth="yes"/>
      <point x="293" y="666" type="line"/>
      <point x="293" y="710" type="line"/>
      <point x="46" y="710" type="line"/>
    </contour>
    <contour>
      <point x="34" y="0" type="line"/>
      <point x="284" y="0" type="line"/>
      <point x="284" y="44" type="line"/>
      <point x="264" y="44" type="line" smooth="yes"/>
      <point x="224" y="44"/>
      <point x="178" y="52"/>
      <point x="178" y="61" type="curve"/>
      <point x="400" y="355" type="line"/>
      <point x="372" y="382" type="line"/>
      <point x="146" y="90" type="line" smooth="yes"/>
      <point x="118" y="53"/>
      <point x="93" y="44"/>
      <point x="55" y="44" type="curve" smooth="yes"/>
      <point x="34" y="44" type="line"/>
    </contour>
    <contour>
      <point x="417" y="354" type="line"/>
      <point x="628" y="621" type="line" smooth="yes"/>
      <point x="657" y="658"/>
      <point x="683" y="666"/>
      <point x="722" y="666" type="curve" smooth="yes"/>
      <point x="738" y="666" type="line"/>
      <point x="738" y="710" type="line"/>
      <point x="492" y="710" type="line"/>
      <point x="492" y="666" type="line"/>
      <point x="508" y="666" type="line" smooth="yes"/>
      <point x="548" y="666"/>
      <point x="596" y="659"/>
      <point x="596" y="649" type="curve"/>
      <point x="388" y="379" type="line"/>
    </contour>
  </outline>
</glyph>
<glyph name="Z" format="2">
  <advance width="664"/>
  <unicode hex="005A"/>
  <anchor x="375" y="741" name="top"/>
  <anchor x="375" y="0" name="bottom"/>
  <outline>
    <contour>
      <point x="84" y="39" type="line"/>
      <point x="97" y="20" type="line"/>
      <point x="594" y="666" type="line"/>
      <point x="594" y="710" type="line"/>
      <point x="80" y="710" type="line"/>
      <point x="80" y="482" type="line"/>
      <point x="126" y="482" type="line"/>
      <point x="138" y="607" type="line" smooth="yes"/>
      <point x="144" y="656"/>
      <point x="181" y="671"/>
      <point x="272" y="671" type="curve" smooth="yes"/>
      <point x="558" y="671" type="line"/>
      <point x="546" y="682" type="line"/>
      <point x="57" y="47" type="line"/>
      <point x="57" y="0" type="line"/>
      <point x="607" y="0" type="line"/>
      <point x="607" y="214" type="line"/>
      <point x="559" y="214" type="line"/>
      <point x="543" y="84" type="line" smooth="yes"/>
      <point x="539" y="48"/>
      <point x="502" y="39"/>
      <point x="411" y="39" type="curve" smooth="yes"/>
    </contour>
  </outline>
</glyph>
<glyph name="grave" format="2">
  <advance width="530"/>
  <unicode hex="0060"/>
  <anchor x="325" y="531" name="_top"/>
  <outline>
    <contour>
      <point x="302" y="793" type="curve" smooth="yes"/>
      <point x="377" y="679" type="line"/>
      <point x="377" y="661" type="line"/>
      <point x="355" y="661" type="line"/>
      <point x="239" y="761" type="line" smooth="yes"/>
      <point x="211" y="785"/>
      <point x="191" y="799"/>
      <point x="191" y="826" type="curve" smooth="yes"/>
      <point x="191" y="841"/>
      <point x="206" y="855"/>
      <point x="233" y="855" type="curve" smooth="yes"/>
      <point x="265" y="855"/>
      <point x="279" y="828"/>
    </contour>
  </outline>
</glyph>
<glyph name="j" format="2">
  <advance width="333"/>
  <unicode hex="006A"/>
  <anchor x="189" y="551" name="top"/>
  <outline>
    <contour>
      <point x="150" y="-79" type="line" smooth="yes"/>
      <point x="150" y="-189"/>
      <point x="109" y="-209"/>
      <point x="32" y="-209" type="curve" smooth="yes"/>
      <point x="-15" y="-209"/>
      <point x="-50" y="-200"/>
      <point x="-67" y="-195" type="curve"/>
      <point x="-67" y="-240" type="line"/>
      <point x="-50" y="-244"/>
      <point x="-14" y="-250"/>
      <point x="32" y="-250" type="curve" smooth="yes"/>
      <point x="134" y="-250"/>
      <point x="200" y="-211"/>
      <point x="200" y="-79" type="curve" smooth="yes"/>
      <point x="200" y="565" type="line"/>
      <point x="43" y="565" type="line"/>
      <point x="43" y="521" type="line"/>
      <point x="57" y="519" type="line" smooth="yes"/>
      <point x="114" y="511"/>
      <point x="150" y="503"/>
      <point x="150" y="474" type="curve" smooth="yes"/>
    </contour>
    <contour>
      <point x="159" y="699" type="curve" smooth="yes"/>
      <point x="191" y="699"/>
      <point x="217" y="712"/>
      <point x="217" y="751" type="curve" smooth="yes"/>
      <point x="217" y="790"/>
      <point x="191" y="804"/>
      <point x="159" y="804" type="curve" smooth="yes"/>
      <point x="125" y="804"/>
      <point x="101" y="790"/>
      <point x="101" y="751" type="curve" smooth="yes"/>
      <point x="101" y="712"/>
      <point x="125" y="699"/>
    </contour>
  </outline>
</glyph>
<glyph name="l" format="2">
  <advance width="348"/>
  <unicode hex="006C"/>
  <anchor x="196" y="746" name="top"/>
  <anchor x="322" y="735" name="right"/>
  <anchor x="386" y="391" name="mid"/>
  <anchor x="200" y="0" name="bottom"/>
  <outline>
    <contour>
      <point x="204" y="780" type="line"/>
      <point x="57" y="780" type="line"/>
      <point x="57" y="736" type="line"/>
      <point x="68" y="734" type="line" smooth="yes"/>
      <point x="125" y="723"/>
      <point x="155" y="718"/>
      <point x="155" y="689" type="curve" smooth="yes"/>
      <point x="155" y="116" type="line" smooth="yes"/>
      <point x="155" y="54"/>
      <point x="122" y="37"/>
      <point x="63" y="37" type="curve" smooth="yes"/>
      <point x="57" y="37" type="line"/>
      <point x="57" y="0" type="line"/>
      <point x="300" y="0" type="line"/>
      <point x="300" y="37" type="line"/>
      <point x="296" y="37" type="line" smooth="yes"/>
      <point x="237" y="37"/>
      <point x="204" y="54"/>
      <point x="204" y="116" type="curve" smooth="yes"/>
    </contour>
  </outline>
</glyph>
<glyph name="n" format="2">
  <advance width="729"/>
  <unicode hex="006E"/>
  <anchor x="365" y="551" name="top"/>
  <anchor x="373" y="0" name="bottom"/>
  <outline>
    <contour>
      <point x="56" y="0" type="line"/>
      <point x="284" y="0" type="line"/>
      <point x="284" y="37" type="line"/>
      <point x="279" y="37" type="line" smooth="yes"/>
      <point x="249" y="37"/>
      <point x="202" y="40"/>
      <point x="202" y="47" type="curve" smooth="yes"/>
      <point x="202" y="417" type="line"/>
      <point x="201" y="427" type="line"/>
      <point x="178" y="565" type="line"/>
      <point x="56" y="565" type="line"/>
      <point x="56" y="521" type="line"/>
      <point x="67" y="519" type="line" smooth="yes"/>
      <point x="124" y="508"/>
      <point x="152" y="503"/>
      <point x="152" y="474" type="curve" smooth="yes"/>
      <point x="152" y="113" type="line" smooth="yes"/>
      <point x="152" y="53"/>
      <point x="120" y="37"/>
      <point x="60" y="37" type="curve" smooth="yes"/>
      <point x="56" y="37" type="line"/>
    </contour>
    <contour>
      <point x="688" y="0" type="line"/>
      <point x="688" y="37" type="line"/>
      <point x="683" y="37" type="line" smooth="yes"/>
      <point x="624" y="37"/>
      <point x="591" y="53"/>
      <point x="591" y="113" type="curve" smooth="yes"/>
      <point x="591" y="435" type="line" smooth="yes"/>
      <point x="591" y="524"/>
      <point x="546" y="576"/>
      <point x="443" y="576" type="curve" smooth="yes"/>
      <point x="354" y="576"/>
      <point x="267" y="528"/>
      <point x="192" y="432" type="curve"/>
      <point x="201" y="405" type="line"/>
      <point x="269" y="484"/>
      <point x="337" y="532"/>
      <point x="419" y="532" type="curve" smooth="yes"/>
      <point x="509" y="532"/>
      <point x="541" y="497"/>
      <point x="541" y="427" type="curve" smooth="yes"/>
      <point x="541" y="47" type="line" smooth="yes"/>
      <point x="541" y="40"/>
      <point x="494" y="37"/>
      <point x="465" y="37" type="curve" smooth="yes"/>
      <point x="460" y="37" type="line"/>
      <point x="460" y="0" type="line"/>
    </contour>
  </outline>
</glyph>
<glyph name="x" format="2">
  <advance width="665"/>
  <unicode hex="0078"/>
  <outline>
    <contour>
      <point x="631" y="0" type="line"/>
      <point x="631" y="38" type="line"/>
      <point x="626" y="38" type="line"/>
      <point x="577" y="38"/>
      <point x="560" y="47"/>
      <point x="540" y="71" type="curve" smooth="yes"/>
      <point x="345" y="309" type="line"/>
      <point x="335" y="313" type="line"/>
      <point x="169" y="520" type="line"/>
      <point x="169" y="526"/>
      <point x="213" y="527"/>
      <point x="252" y="527" type="curve" smooth="yes"/>
      <point x="254" y="527" type="line"/>
      <point x="254" y="565" type="line"/>
      <point x="44" y="565" type="line"/>
      <point x="44" y="527" type="line"/>
      <point x="49" y="527" type="line"/>
      <point x="92" y="527"/>
      <point x="110" y="517"/>
      <point x="131" y="493" type="curve" smooth="yes"/>
      <point x="300" y="288" type="line"/>
      <point x="314" y="278" type="line"/>
      <point x="501" y="45" type="line"/>
      <point x="501" y="39"/>
      <point x="457" y="38"/>
      <point x="419" y="38" type="curve" smooth="yes"/>
      <point x="416" y="38" type="line"/>
      <point x="416" y="0" type="line"/>
    </contour>
    <contour>
      <point x="34" y="0" type="line"/>
      <point x="255" y="0" type="line"/>
      <point x="255" y="38" type="line"/>
      <point x="252" y="38" type="line"/>
      <point x="207" y="38"/>
      <point x="163" y="50"/>
      <point x="163" y="63" type="curve"/>
      <point x="333" y="278" type="line"/>
      <point x="304" y="297" type="line"/>
      <point x="128" y="80" type="line" smooth="yes"/>
      <point x="102" y="48"/>
      <point x="83" y="38"/>
      <point x="39" y="38" type="curve"/>
      <point x="34" y="38" type="line"/>
    </contour>
    <contour>
      <point x="348" y="285" type="line"/>
      <point x="525" y="496" type="line" smooth="yes"/>
      <point x="546" y="521"/>
      <point x="571" y="527"/>
      <point x="602" y="527" type="curve"/>
      <point x="607" y="527" type="line"/>
      <point x="607" y="565" type="line"/>
      <point x="393" y="565" type="line"/>
      <point x="393" y="527" type="line"/>
      <point x="397" y="527" type="line"/>
      <point x="440" y="527"/>
      <point x="484" y="516"/>
      <point x="484" y="504" type="curve"/>
      <point x="318" y="301" type="line"/>
    </contour>
  </outline>
</glyph>
<glyph name="cent" format="2">
  <advance width="594"/>
  <unicode hex="00A2"/>
  <outline>
    <contour>
      <point x="336" y="27" type="curve" smooth="yes"/>
      <point x="190" y="27"/>
      <point x="116" y="104"/>
      <point x="116" y="281" type="curve" smooth="yes"/>
      <point x="116" y="451"/>
      <point x="183" y="537"/>
      <point x="338" y="537" type="curve" smooth="yes"/>
      <point x="418" y="537"/>
      <point x="462" y="528"/>
      <point x="494" y="521" type="curve"/>
      <point x="492" y="544"/>
      <point x="496" y="534"/>
      <point x="470" y="539" type="curve"/>
      <point x="470" y="408" type="line"/>
      <point x="528" y="408" type="line"/>
      <point x="528" y="546" type="line"/>
      <point x="516" y="553"/>
      <point x="452" y="576"/>
      <point x="338" y="576" type="curve" smooth="yes"/>
      <point x="163" y="576"/>
      <point x="64" y="460"/>
      <point x="64" y="281" type="curve" smooth="yes"/>
      <point x="64" y="88"/>
      <point x="172" y="-13"/>
      <point x="336" y="-13" type="curve" smooth="yes"/>
      <point x="436" y="-13"/>
      <point x="519" y="43"/>
      <point x="559" y="125" type="curve"/>
      <point x="520" y="142" type="line"/>
      <point x="484" y="80"/>
      <point x="435" y="27"/>
    </contour>
    <contour>
      <point x="306" y="703" type="line"/>
      <point x="306" y="554" type="line"/>
      <point x="308" y="544" type="line"/>
      <point x="308" y="28" type="line"/>
      <point x="306" y="11" type="line"/>
      <point x="306" y="-166" type="line"/>
      <point x="347" y="-166" type="line"/>
      <point x="347" y="12" type="line"/>
      <point x="345" y="23" type="line"/>
      <point x="345" y="544" type="line"/>
      <point x="347" y="555" type="line"/>
      <point x="347" y="703" type="line"/>
    </contour>
  </outline>
</glyph>
<glyph name="section" format="2">
  <advance width="663"/>
  <unicode hex="00A7"/>
  <outline>
    <contour>
      <point x="318" y="428" type="line"/>
      <point x="179" y="435"/>
      <point x="58" y="394"/>
      <point x="58" y="279" type="curve" smooth="yes"/>
      <point x="58" y="159"/>
      <point x="164" y="143"/>
      <point x="287" y="107" type="curve" smooth="yes"/>
      <point x="395" y="75"/>
      <point x="481" y="50"/>
      <point x="481" y="-63" type="curve" smooth="yes"/>
      <point x="481" y="-157"/>
      <point x="426" y="-200"/>
      <point x="316" y="-200" type="curve" smooth="yes"/>
      <point x="243" y="-200"/>
      <point x="181" y="-185"/>
      <point x="140" y="-159" type="curve"/>
      <point x="129" y="-154"/>
      <point x="124" y="-174"/>
      <point x="156" y="-198" type="curve"/>
      <point x="156" y="-46" type="line"/>
      <point x="93" y="-46" type="line"/>
      <point x="93" y="-182" type="line"/>
      <point x="137" y="-205"/>
      <point x="210" y="-236"/>
      <point x="316" y="-236" type="curve" smooth="yes"/>
      <point x="451" y="-236"/>
      <point x="536" y="-173"/>
      <point x="536" y="-54" type="curve" smooth="yes"/>
      <point x="536" y="67"/>
      <point x="427" y="106"/>
      <point x="312" y="140" type="curve" smooth="yes"/>
      <point x="196" y="174"/>
      <point x="110" y="183"/>
      <point x="110" y="289" type="curve" smooth="yes"/>
      <point x="110" y="374"/>
      <point x="190" y="401"/>
      <point x="331" y="406" type="curve"/>
    </contour>
    <contour>
      <point x="430" y="62" type="line"/>
      <point x="539" y="82"/>
      <point x="605" y="127"/>
      <point x="605" y="226" type="curve" smooth="yes"/>
      <point x="605" y="333"/>
      <point x="485" y="365"/>
      <point x="371" y="408" type="curve" smooth="yes"/>
      <point x="269" y="447"/>
      <point x="185" y="460"/>
      <point x="185" y="569" type="curve" smooth="yes"/>
      <point x="185" y="643"/>
      <point x="237" y="683"/>
      <point x="355" y="683" type="curve" smooth="yes"/>
      <point x="427" y="683"/>
      <point x="474" y="668"/>
      <point x="507" y="644" type="curve"/>
      <point x="508" y="650"/>
      <point x="508" y="676"/>
      <point x="478" y="678" type="curve"/>
      <point x="478" y="546" type="line"/>
      <point x="541" y="546" type="line"/>
      <point x="541" y="679" type="line"/>
      <point x="514" y="697"/>
      <point x="448" y="720"/>
      <point x="355" y="720" type="curve" smooth="yes"/>
      <point x="213" y="720"/>
      <point x="129" y="664"/>
      <point x="129" y="562" type="curve" smooth="yes"/>
      <point x="129" y="445"/>
      <point x="241" y="413"/>
      <point x="347" y="375" type="curve" smooth="yes"/>
      <point x="455" y="336"/>
      <point x="553" y="305"/>
      <point x="553" y="223" type="curve" smooth="yes"/>
      <point x="553" y="145"/>
      <point x="514" y="108"/>
      <point x="418" y="87" type="curve"/>
    </contour>
  </outline>
</glyph>
<glyph name="logicalnot" format="2">
  <advance width="594"/>
  <unicode hex="00AC"/>
  <outline>
    <contour>
      <point x="467" y="393" type="line"/>
      <point x="467" y="160" type="line"/>
      <point x="519" y="160" type="line"/>
      <point x="519" y="413" type="line"/>
      <point x="75" y="413" type="line"/>
      <point x="75" y="370" type="line"/>
      <point x="498" y="370" type="line"/>
    </contour>
  </outline>
</glyph>
<glyph name="multiply" format="2">
  <advance width="594"/>
  <unicode hex="00D7"/>
  <outline>
    <contour>
      <point x="97" y="527" type="line"/>
      <point x="94" y="590" type="line"/>
      <point x="497" y="153" type="line"/>
      <point x="500" y="89" type="line"/>
    </contour>
    <contour>
      <point x="497" y="527" type="line"/>
      <point x="94" y="89" type="line"/>
      <point x="97" y="153" type="line"/>
      <point x="500" y="590" type="line"/>
    </contour>
  </outline>
</glyph>
<glyph name="ae" format="2">
  <advance width="1024"/>
  <unicode hex="00E6"/>
  <anchor x="516" y="555" name="top"/>
  <outline>
    <contour>
      <point x="478" y="347" type="line"/>
      <point x="160" y="305"/>
      <point x="77" y="256"/>
      <point x="77" y="137" type="curve" smooth="yes"/>
      <point x="77" y="33"/>
      <point x="139" y="-13"/>
      <point x="266" y="-13" type="curve" smooth="yes"/>
      <point x="382" y="-13"/>
      <point x="448" y="34"/>
      <point x="514" y="166" type="curve"/>
      <point x="483" y="186" type="line"/>
      <point x="429" y="73"/>
      <point x="376" y="26"/>
      <point x="271" y="26" type="curve" smooth="yes"/>
      <point x="171" y="26"/>
      <point x="129" y="57"/>
      <point x="129" y="137" type="curve" smooth="yes"/>
      <point x="129" y="228"/>
      <point x="181" y="269"/>
      <point x="478" y="310" type="curve"/>
    </contour>
    <contour>
      <point x="316" y="576" type="curve" smooth="yes"/>
      <point x="231" y="576"/>
      <point x="144" y="552"/>
      <point x="110" y="535" type="curve"/>
      <point x="110" y="402" type="line"/>
      <point x="165" y="402" type="line"/>
      <point x="165" y="535" type="line"/>
      <point x="151" y="543"/>
      <point x="131" y="524"/>
      <point x="147" y="519" type="curve"/>
      <point x="186" y="529"/>
      <point x="244" y="538"/>
      <point x="316" y="538" type="curve" smooth="yes"/>
      <point x="442" y="538"/>
      <point x="470" y="501"/>
      <point x="470" y="421" type="curve" smooth="yes"/>
      <point x="470" y="324" type="line"/>
      <point x="514" y="434" type="line"/>
      <point x="514" y="540"/>
      <point x="452" y="576"/>
    </contour>
    <contour>
      <point x="742" y="-13" type="curve" smooth="yes"/>
      <point x="849" y="-13"/>
      <point x="923" y="26"/>
      <point x="969" y="100" type="curve"/>
      <point x="932" y="117" type="line"/>
      <point x="894" y="65"/>
      <point x="852" y="28"/>
      <point x="742" y="28" type="curve" smooth="yes"/>
      <point x="614" y="28"/>
      <point x="521" y="96"/>
      <point x="521" y="276" type="curve" smooth="yes"/>
      <point x="521" y="445"/>
      <point x="608" y="534"/>
      <point x="728" y="534" type="curve" smooth="yes"/>
      <point x="861" y="534"/>
      <point x="905" y="474"/>
      <point x="910" y="293" type="curve"/>
      <point x="926" y="305" type="line"/>
      <point x="505" y="305" type="line"/>
      <point x="505" y="271" type="line"/>
      <point x="963" y="271" type="line"/>
      <point x="965" y="467"/>
      <point x="896" y="575"/>
      <point x="728" y="575" type="curve" smooth="yes"/>
      <point x="607" y="575"/>
      <point x="535" y="496"/>
      <point x="496" y="395" type="curve"/>
      <point x="479" y="393"/>
      <point x="467" y="354"/>
      <point x="467" y="276" type="curve" smooth="yes"/>
      <point x="467" y="82"/>
      <point x="590" y="-13"/>
    </contour>
  </outline>
</glyph>
<glyph name="eogonek" format="2">
  <advance width="612"/>
  <unicode hex="0119"/>
  <outline>
    <contour>
      <point x="354" y="-252" type="curve" smooth="yes"/>
      <point x="416" y="-252"/>
      <point x="461" y="-223"/>
      <point x="496" y="-183" type="curve"/>
      <point x="470" y="-160" type="line"/>
      <point x="450" y="-181"/>
      <point x="417" y="-217"/>
      <point x="360" y="-217" type="curve" smooth="yes"/>
      <point x="317" y="-217"/>
      <point x="294" y="-194"/>
      <point x="294" y="-158" type="curve" smooth="yes"/>
      <point x="294" y="-73"/>
      <point x="427" y="-26"/>
      <point x="500" y="38" type="curve" smooth="yes"/>
      <point x="521" y="55"/>
      <point x="541" y="74"/>
      <point x="557" y="99" type="curve"/>
      <point x="520" y="118" type="line"/>
      <point x="482" y="65"/>
      <point x="441" y="28"/>
      <point x="330" y="28" type="curve" smooth="yes"/>
      <point x="202" y="28"/>
      <point x="111" y="96"/>
      <point x="111" y="276" type="curve" smooth="yes"/>
      <point x="111" y="445"/>
      <point x="182" y="534"/>
      <point x="317" y="534" type="curve" smooth="yes"/>
      <point x="449" y="534"/>
      <point x="493" y="474"/>
      <point x="498" y="293" type="curve"/>
      <point x="514" y="305" type="line"/>
      <point x="95" y="305" type="line"/>
      <point x="95" y="271" type="line"/>
      <point x="551" y="271" type="line"/>
      <point x="553" y="467"/>
      <point x="485" y="575"/>
      <point x="317" y="575" type="curve" smooth="yes"/>
      <point x="160" y="575"/>
      <point x="55" y="453"/>
      <point x="55" y="276" type="curve" smooth="yes"/>
      <point x="55" y="82"/>
      <point x="179" y="-13"/>
      <point x="330" y="-13" type="curve" smooth="yes"/>
      <point x="369" y="-13"/>
      <point x="402" y="-8"/>
      <point x="432" y="3" type="curve"/>
      <point x="442" y="27" type="line"/>
      <point x="277" y="-66"/>
      <point x="237" y="-94"/>
      <point x="237" y="-158" type="curve" smooth="yes"/>
      <point x="237" y="-216"/>
      <point x="285" y="-252"/>
    </contour>
  </outline>
</glyph>
<glyph name="Eng" format="2">
  <advance width="852"/>
  <unicode hex="014A"/>
  <outline>
    <contour>
      <point x="465" y="-250" type="curve" smooth="yes"/>
      <point x="398" y="-250"/>
      <point x="341" y="-233"/>
      <point x="312" y="-215" type="curve"/>
      <point x="312" y="-170" type="line"/>
      <point x="337" y="-182"/>
      <point x="400" y="-209"/>
      <point x="466" y="-209" type="curve" smooth="yes"/>
      <point x="551" y="-209"/>
      <point x="636" y="-179"/>
      <point x="636" y="-21" type="curve" smooth="yes"/>
      <point x="636" y="25" type="line"/>
      <point x="669" y="-60" type="line"/>
      <point x="183" y="691" type="line"/>
      <point x="202" y="686" type="line"/>
      <point x="202" y="54" type="line" smooth="yes"/>
      <point x="202" y="47"/>
      <point x="254" y="44"/>
      <point x="289" y="44" type="curve" smooth="yes"/>
      <point x="304" y="44" type="line"/>
      <point x="304" y="0" type="line"/>
      <point x="56" y="0" type="line"/>
      <point x="56" y="44" type="line"/>
      <point x="68" y="44" type="line" smooth="yes"/>
      <point x="120" y="44"/>
      <point x="158" y="51"/>
      <point x="158" y="80" type="curve" smooth="yes"/>
      <point x="158" y="630" type="line" smooth="yes"/>
      <point x="158" y="659"/>
      <point x="120" y="666"/>
      <point x="68" y="666" type="curve" smooth="yes"/>
      <point x="56" y="666" type="line"/>
      <point x="56" y="710" type="line"/>
      <point x="227" y="710" type="line"/>
      <point x="655" y="48" type="line"/>
      <point x="644" y="47" type="line"/>
      <point x="644" y="656" type="line" smooth="yes"/>
      <point x="644" y="663"/>
      <point x="592" y="666"/>
      <point x="557" y="666" type="curve" smooth="yes"/>
      <point x="542" y="666" type="line"/>
      <point x="542" y="710" type="line"/>
      <point x="790" y="710" type="line"/>
      <point x="790" y="666" type="line"/>
      <point x="778" y="666" type="line" smooth="yes"/>
      <point x="726" y="666"/>
      <point x="688" y="659"/>
      <point x="688" y="630" type="curve" smooth="yes"/>
      <point x="688" y="-18" type="line" smooth="yes"/>
      <point x="688" y="-186"/>
      <point x="603" y="-250"/>
    </contour>
  </outline>
</glyph>
<glyph name="Tbar" format="2">
  <advance width="699"/>
  <unicode hex="0166"/>
  <outline>
    <contour>
      <point x="105" y="338" type="line"/>
      <point x="105" y="291" type="line"/>
      <point x="596" y="291" type="line"/>
      <point x="596" y="338" type="line"/>
    </contour>
    <component base="T"/>
  </outline>
</glyph>
<glyph name="Uogonek" format="2">
  <advance width="858"/>
  <unicode hex="0172"/>
  <outline>
    <contour>
      <point x="495" y="-252" type="curve" smooth="yes"/>
      <point x="557" y="-252"/>
      <point x="602" y="-223"/>
      <point x="638" y="-183" type="curve"/>
      <point x="611" y="-160" type="line"/>
      <point x="591" y="-181"/>
      <point x="558" y="-217"/>
      <point x="501" y="-217" type="curve" smooth="yes"/>
      <point x="458" y="-217"/>
      <point x="435" y="-194"/>
      <point x="435" y="-158" type="curve" smooth="yes"/>
      <point x="435" y="-86"/>
      <point x="535" y="-57"/>
      <point x="625" y="41" type="curve" smooth="yes"/>
      <point x="674" y="92"/>
      <point x="701" y="157"/>
      <point x="701" y="256" type="curve" smooth="yes"/>
      <point x="701" y="621" type="line" smooth="yes"/>
      <point x="701" y="655"/>
      <point x="740" y="666"/>
      <point x="792" y="666" type="curve" smooth="yes"/>
      <point x="803" y="666" type="line"/>
      <point x="803" y="710" type="line"/>
      <point x="558" y="710" type="line"/>
      <point x="558" y="666" type="line"/>
      <point x="568" y="666" type="line" smooth="yes"/>
      <point x="608" y="666"/>
      <point x="660" y="659"/>
      <point x="660" y="647" type="curve" smooth="yes"/>
      <point x="660" y="256" type="line" smooth="yes"/>
      <point x="660" y="78"/>
      <point x="565" y="15"/>
      <point x="435" y="15" type="curve" smooth="yes"/>
      <point x="307" y="15"/>
      <point x="207" y="75"/>
      <point x="207" y="256" type="curve" smooth="yes"/>
      <point x="207" y="656" type="line" smooth="yes"/>
      <point x="207" y="663"/>
      <point x="258" y="666"/>
      <point x="299" y="666" type="curve" smooth="yes"/>
      <point x="308" y="666" type="line"/>
      <point x="308" y="710" type="line"/>
      <point x="55" y="710" type="line"/>
      <point x="55" y="666" type="line"/>
      <point x="67" y="666" type="line" smooth="yes"/>
      <point x="119" y="666"/>
      <point x="157" y="659"/>
      <point x="157" y="630" type="curve" smooth="yes"/>
      <point x="157" y="256" type="line" smooth="yes"/>
      <point x="157" y="53"/>
      <point x="272" y="-25"/>
      <point x="429" y="-25" type="curve" smooth="yes"/>
      <point x="480" y="-25"/>
      <point x="530" y="-15"/>
      <point x="571" y="6" type="curve"/>
      <point x="594" y="38" type="line"/>
      <point x="422" y="-70"/>
      <point x="378" y="-99"/>
      <point x="378" y="-158" type="curve" smooth="yes"/>
      <point x="378" y="-216"/>
      <point x="426" y="-252"/>
    </contour>
  </outline>
</glyph>
<glyph name="uogonek" format="2">
  <advance width="708"/>
  <unicode hex="0173"/>
  <outline>
    <contour>
      <point x="190" y="565" type="line"/>
      <point x="39" y="565" type="line"/>
      <point x="39" y="528" type="line"/>
      <point x="47" y="528" type="line" smooth="yes"/>
      <point x="107" y="530"/>
      <point x="140" y="512"/>
      <point x="140" y="443" type="curve" smooth="yes"/>
      <point x="140" y="130" type="line" smooth="yes"/>
      <point x="140" y="41"/>
      <point x="184" y="-11"/>
      <point x="280" y="-11" type="curve" smooth="yes"/>
      <point x="365" y="-11"/>
      <point x="443" y="41"/>
      <point x="526" y="141" type="curve"/>
      <point x="517" y="172" type="line"/>
      <point x="444" y="83"/>
      <point x="382" y="33"/>
      <point x="305" y="33" type="curve" smooth="yes"/>
      <point x="222" y="33"/>
      <point x="190" y="69"/>
      <point x="190" y="138" type="curve" smooth="yes"/>
    </contour>
    <contour>
      <point x="561" y="565" type="line"/>
      <point x="405" y="565" type="line"/>
      <point x="405" y="528" type="line"/>
      <point x="418" y="528" type="line" smooth="yes"/>
      <point x="477" y="530"/>
      <point x="511" y="512"/>
      <point x="511" y="443" type="curve"/>
      <point x="511" y="146" type="line"/>
      <point x="512" y="136" type="line"/>
      <point x="535" y="0" type="line"/>
      <point x="657" y="0" type="line"/>
      <point x="657" y="42" type="line"/>
      <point x="647" y="44" type="line" smooth="yes"/>
      <point x="589" y="56"/>
      <point x="561" y="60"/>
      <point x="561" y="89" type="curve" smooth="yes"/>
    </contour>
    <contour>
      <point x="586" y="34" type="line"/>
      <point x="422" y="-69"/>
      <point x="381" y="-96"/>
      <point x="381" y="-158" type="curve" smooth="yes"/>
      <point x="381" y="-216"/>
      <point x="429" y="-252"/>
      <point x="498" y="-252" type="curve" smooth="yes"/>
      <point x="561" y="-252"/>
      <point x="605" y="-223"/>
      <point x="641" y="-183" type="curve"/>
      <point x="615" y="-160" type="line"/>
      <point x="594" y="-181"/>
      <point x="561" y="-217"/>
      <point x="504" y="-217" type="curve" smooth="yes"/>
      <point x="461" y="-217"/>
      <point x="438" y="-194"/>
      <point x="438" y="-158" type="curve" smooth="yes"/>
      <point x="438" y="-90"/>
      <point x="503" y="-59"/>
      <point x="606" y="11" type="curve"/>
    </contour>
  </outline>
</glyph>
<glyph name="Uhorn" format="2">
  <advance width="981"/>
  <unicode hex="01AF"/>
  <anchor x="279" y="663" name="top"/>
  <outline>
    <contour>
      <point x="787" y="669" type="curve" smooth="yes"/>
      <point x="897" y="681"/>
      <point x="962" y="719"/>
      <point x="976" y="899" type="curve"/>
      <point x="922" y="899" type="line"/>
      <point x="911" y="783"/>
      <point x="900" y="710"/>
      <point x="757" y="710" type="curve" smooth="yes"/>
      <point x="558" y="710" type="line"/>
      <point x="558" y="666" type="line"/>
      <point x="568" y="666" type="line" smooth="yes"/>
      <point x="608" y="666"/>
      <point x="660" y="659"/>
      <point x="660" y="647" type="curve" smooth="yes"/>
      <point x="660" y="256" type="line" smooth="yes"/>
      <point x="660" y="78"/>
      <point x="565" y="15"/>
      <point x="435" y="15" type="curve" smooth="yes"/>
      <point x="307" y="15"/>
      <point x="207" y="75"/>
      <point x="207" y="256" type="curve" smooth="yes"/>
      <point x="207" y="656" type="line" smooth="yes"/>
      <point x="207" y="663"/>
      <point x="258" y="666"/>
      <point x="299" y="666" type="curve" smooth="yes"/>
      <point x="308" y="666" type="line"/>
      <point x="308" y="710" type="line"/>
      <point x="55" y="710" type="line"/>
      <point x="55" y="666" type="line"/>
      <point x="67" y="666" type="line" smooth="yes"/>
      <point x="119" y="666"/>
      <point x="157" y="659"/>
      <point x="157" y="630" type="curve" smooth="yes"/>
      <point x="157" y="256" type="line" smooth="yes"/>
      <point x="157" y="53"/>
      <point x="272" y="-25"/>
      <point x="429" y="-25" type="curve" smooth="yes"/>
      <point x="581" y="-25"/>
      <point x="701" y="54"/>
      <point x="701" y="256" type="curve" smooth="yes"/>
      <point x="701" y="621" type="line" smooth="yes"/>
      <point x="701" y="655"/>
      <point x="736" y="663"/>
    </contour>
  </outline>
</glyph>
<glyph name="Oogonek" format="2">
  <advance width="823"/>
  <unicode hex="01EA"/>
  <outline>
    <contour>
      <point x="412" y="16" type="curve" smooth="yes"/>
      <point x="222" y="16"/>
      <point x="114" y="119"/>
      <point x="114" y="355" type="curve" smooth="yes"/>
      <point x="114" y="592"/>
      <point x="222" y="694"/>
      <point x="412" y="694" type="curve" smooth="yes"/>
      <point x="602" y="694"/>
      <point x="710" y="592"/>
      <point x="710" y="355" type="curve" smooth="yes"/>
      <point x="710" y="119"/>
      <point x="602" y="16"/>
    </contour>
    <contour>
      <point x="481" y="-252" type="curve" smooth="yes"/>
      <point x="544" y="-252"/>
      <point x="588" y="-223"/>
      <point x="624" y="-183" type="curve"/>
      <point x="598" y="-160" type="line"/>
      <point x="577" y="-181"/>
      <point x="545" y="-217"/>
      <point x="487" y="-217" type="curve" smooth="yes"/>
      <point x="444" y="-217"/>
      <point x="421" y="-194"/>
      <point x="421" y="-158" type="curve" smooth="yes"/>
      <point x="421" y="-75"/>
      <point x="563" y="-32"/>
      <point x="659" y="60" type="curve" smooth="yes"/>
      <point x="726" y="121"/>
      <point x="765" y="221"/>
      <point x="765" y="355" type="curve" smooth="yes"/>
      <point x="765" y="612"/>
      <point x="621" y="735"/>
      <point x="412" y="735" type="curve" smooth="yes"/>
      <point x="202" y="735"/>
      <point x="59" y="612"/>
      <point x="59" y="355" type="curve" smooth="yes"/>
      <point x="59" y="97"/>
      <point x="202" y="-25"/>
      <point x="412" y="-25" type="curve" smooth="yes"/>
      <point x="467" y="-25"/>
      <point x="517" y="-16"/>
      <point x="561" y="2" type="curve"/>
      <point x="578" y="32" type="line"/>
      <point x="405" y="-67"/>
      <point x="364" y="-94"/>
      <point x="364" y="-158" type="curve" smooth="yes"/>
      <point x="364" y="-216"/>
      <point x="412" y="-252"/>
    </contour>
  </outline>
</glyph>
<glyph name="dotlessj" format="2">
  <advance width="333"/>
  <unicode hex="0237"/>
  <anchor x="179" y="521" name="top"/>
  <outline>
    <contour>
      <point x="150" y="-79" type="line" smooth="yes"/>
      <point x="150" y="-189"/>
      <point x="109" y="-209"/>
      <point x="32" y="-209" type="curve" smooth="yes"/>
      <point x="-15" y="-209"/>
      <point x="-50" y="-200"/>
      <point x="-67" y="-195" type="curve"/>
      <point x="-67" y="-240" type="line"/>
      <point x="-50" y="-244"/>
      <point x="-14" y="-250"/>
      <point x="32" y="-250" type="curve" smooth="yes"/>
      <point x="134" y="-250"/>
      <point x="200" y="-211"/>
      <point x="200" y="-79" type="curve" smooth="yes"/>
      <point x="200" y="565" type="line"/>
      <point x="43" y="565" type="line"/>
      <point x="43" y="521" type="line"/>
      <point x="57" y="519" type="line" smooth="yes"/>
      <point x="114" y="511"/>
      <point x="150" y="503"/>
      <point x="150" y="474" type="curve" smooth="yes"/>
    </contour>
  </outline>
</glyph>
<glyph name="circumflex" format="2">
  <advance width="530"/>
  <unicode hex="02C6"/>
  <anchor x="267" y="542" name="_top"/>
  <outline>
    <contour>
      <point x="301" y="828" type="line"/>
      <point x="434" y="677" type="line"/>
      <point x="434" y="656" type="line"/>
      <point x="413" y="656" type="line"/>
      <point x="255" y="783" type="line"/>
      <point x="276" y="782" type="line"/>
      <point x="131" y="656" type="line"/>
      <point x="109" y="656" type="line"/>
      <point x="109" y="677" type="line"/>
      <point x="241" y="828" type="line"/>
    </contour>
  </outline>
</glyph>
<glyph name="Omega" format="2">
  <advance width="937"/>
  <unicode hex="03A9"/>
  <outline>
    <contour>
      <point x="469" y="735" type="curve" smooth="yes"/>
      <point x="664" y="735"/>
      <point x="802" y="647"/>
      <point x="802" y="472" type="curve" smooth="yes"/>
      <point x="802" y="343"/>
      <point x="716" y="193"/>
      <point x="549" y="17" type="curve"/>
      <point x="536" y="36" type="line"/>
      <point x="669" y="36" type="line" smooth="yes"/>
      <point x="760" y="36"/>
      <point x="797" y="43"/>
      <point x="801" y="79" type="curve" smooth="yes"/>
      <point x="817" y="219" type="line"/>
      <point x="865" y="219" type="line"/>
      <point x="865" y="0" type="line"/>
      <point x="527" y="0" type="line"/>
      <point x="527" y="47" type="line"/>
      <point x="639" y="167"/>
      <point x="749" y="307"/>
      <point x="749" y="468" type="curve" smooth="yes"/>
      <point x="749" y="625"/>
      <point x="640" y="698"/>
      <point x="469" y="698" type="curve" smooth="yes"/>
      <point x="297" y="698"/>
      <point x="188" y="625"/>
      <point x="188" y="468" type="curve" smooth="yes"/>
      <point x="188" y="307"/>
      <point x="298" y="167"/>
      <point x="410" y="47" type="curve"/>
      <point x="410" y="0" type="line"/>
      <point x="72" y="0" type="line"/>
      <point x="72" y="219" type="line"/>
      <point x="120" y="219" type="line"/>
      <point x="136" y="79" type="line" smooth="yes"/>
      <point x="140" y="43"/>
      <point x="177" y="36"/>
      <point x="268" y="36" type="curve" smooth="yes"/>
      <point x="401" y="36" type="line"/>
      <point x="388" y="17" type="line"/>
      <point x="221" y="193"/>
      <point x="135" y="343"/>
      <point x="135" y="472" type="curve" smooth="yes"/>
      <point x="135" y="647"/>
      <point x="273" y="735"/>
    </contour>
  </outline>
</glyph>
<glyph name="mu" format="2">
  <advance width="673"/>
  <unicode hex="03BC"/>
  <outline>
    <contour>
      <point x="546" y="-10" type="curve" smooth="yes"/>
      <point x="598" y="-10"/>
      <point x="627" y="16"/>
      <point x="648" y="93" type="curve"/>
      <point x="613" y="102" type="line"/>
      <point x="598" y="57"/>
      <point x="587" y="30"/>
      <point x="548" y="30" type="curve" smooth="yes"/>
      <point x="511" y="30"/>
      <point x="490" y="61"/>
      <point x="490" y="145" type="curve" smooth="yes"/>
      <point x="490" y="565" type="line"/>
      <point x="440" y="565" type="line"/>
      <point x="440" y="146" type="line"/>
      <point x="445" y="138" type="line"/>
      <point x="447" y="28"/>
      <point x="482" y="-10"/>
    </contour>
    <contour>
      <point x="89" y="105" type="line"/>
      <point x="99" y="-3"/>
      <point x="146" y="-11"/>
      <point x="207" y="-11" type="curve" smooth="yes"/>
      <point x="294" y="-11"/>
      <point x="373" y="41"/>
      <point x="456" y="141" type="curve"/>
      <point x="447" y="172" type="line"/>
      <point x="374" y="83"/>
      <point x="311" y="33"/>
      <point x="234" y="33" type="curve" smooth="yes"/>
      <point x="151" y="33"/>
      <point x="120" y="69"/>
      <point x="120" y="129" type="curve" smooth="yes"/>
      <point x="120" y="565" type="line"/>
      <point x="70" y="565" type="line"/>
      <point x="70" y="-250" type="line"/>
      <point x="135" y="-250" type="line"/>
      <point x="135" y="-116"/>
      <point x="104" y="-27"/>
      <point x="91" y="155" type="curve"/>
    </contour>
  </outline>
</glyph>
<glyph name="quoteright" format="2">
  <advance width="325"/>
  <unicode hex="2019"/>
  <outline>
    <contour>
      <point x="119" y="467" type="line"/>
      <point x="208" y="504"/>
      <point x="251" y="550"/>
      <point x="251" y="690" type="curve" smooth="yes"/>
      <point x="251" y="749"/>
      <point x="228" y="780"/>
      <point x="173" y="780" type="curve" smooth="yes"/>
      <point x="124" y="780"/>
      <point x="102" y="758"/>
      <point x="102" y="728" type="curve" smooth="yes"/>
      <point x="102" y="697"/>
      <point x="123" y="679"/>
      <point x="165" y="679" type="curve" smooth="yes"/>
      <point x="187" y="679"/>
      <point x="214" y="682"/>
      <point x="228" y="691" type="curve"/>
      <point x="210" y="691" type="line"/>
      <point x="210" y="560"/>
      <point x="167" y="534"/>
      <point x="77" y="507" type="curve"/>
    </contour>
  </outline>
</glyph>
<glyph name="dong" format="2">
  <advance width="594"/>
  <unicode hex="20AB"/>
  <outline>
    <contour>
      <point x="128" y="278" type="curve" smooth="yes"/>
      <point x="128" y="453"/>
      <point x="179" y="540"/>
      <point x="284" y="540" type="curve" smooth="yes"/>
      <point x="359" y="540"/>
      <point x="404" y="489"/>
      <point x="454" y="395" type="curve"/>
      <point x="462" y="422" type="line"/>
      <point x="420" y="518"/>
      <point x="371" y="576"/>
      <point x="287" y="576" type="curve" smooth="yes"/>
      <point x="141" y="576"/>
      <point x="72" y="449"/>
      <point x="72" y="278" type="curve" smooth="yes"/>
      <point x="72" y="107"/>
      <point x="135" y="-12"/>
      <point x="277" y="-12" type="curve" smooth="yes"/>
      <point x="369" y="-12"/>
      <point x="417" y="47"/>
      <point x="462" y="144" type="curve"/>
      <point x="458" y="183" type="line"/>
      <point x="405" y="75"/>
      <point x="354" y="24"/>
      <point x="278" y="24" type="curve" smooth="yes"/>
      <point x="169" y="24"/>
      <point x="128" y="111"/>
    </contour>
    <contour>
      <point x="441" y="780" type="line"/>
      <point x="441" y="121" type="line"/>
      <point x="443" y="121" type="line"/>
      <point x="467" y="0" type="line"/>
      <point x="568" y="0" type="line"/>
      <point x="568" y="42" type="line"/>
      <point x="558" y="44" type="line" smooth="yes"/>
      <point x="514" y="53"/>
      <point x="491" y="60"/>
      <point x="491" y="89" type="curve"/>
      <point x="491" y="780" type="line"/>
    </contour>
    <contour>
      <point x="89" y="-135" type="line"/>
      <point x="89" y="-171" type="line"/>
      <point x="571" y="-171" type="line"/>
      <point x="571" y="-135" type="line"/>
    </contour>
    <contour>
      <point x="213" y="705" type="line"/>
      <point x="213" y="670" type="line"/>
      <point x="569" y="670" type="line"/>
      <point x="569" y="705" type="line"/>
    </contour>
  </outline>
</glyph>
<glyph name="ruble" format="2">
  <advance width="594"/>
  <unicode hex="20BD"/>
  <outline>
    <contour>
      <point x="52" y="381" type="line"/>
      <point x="348" y="381" type="line" smooth="yes"/>
      <point x="447" y="381"/>
      <point x="506" y="435"/>
      <point x="506" y="532" type="curve" smooth="yes"/>
      <point x="506" y="625"/>
      <point x="447" y="674"/>
      <point x="354" y="674" type="curve" smooth="yes"/>
      <point x="203" y="674" type="line"/>
      <point x="203" y="46" type="line" smooth="yes"/>
      <point x="203" y="39"/>
      <point x="248" y="36"/>
      <point x="284" y="36" type="curve" smooth="yes"/>
      <point x="313" y="36" type="line"/>
      <point x="313" y="0" type="line"/>
      <point x="52" y="0" type="line"/>
      <point x="52" y="36" type="line"/>
      <point x="63" y="36" type="line" smooth="yes"/>
      <point x="115" y="36"/>
      <point x="153" y="43"/>
      <point x="153" y="72" type="curve" smooth="yes"/>
      <point x="153" y="638" type="line" smooth="yes"/>
      <point x="153" y="667"/>
      <point x="115" y="674"/>
      <point x="63" y="674" type="curve" smooth="yes"/>
      <point x="52" y="674" type="line"/>
      <point x="52" y="710" type="line"/>
      <point x="346" y="710" type="line" smooth="yes"/>
      <point x="477" y="710"/>
      <point x="557" y="645"/>
      <point x="557" y="532" type="curve" smooth="yes"/>
      <point x="557" y="420"/>
      <point x="472" y="346"/>
      <point x="341" y="346" type="curve" smooth="yes"/>
      <point x="52" y="346" type="line"/>
    </contour>
    <contour>
      <point x="448" y="185" type="line"/>
      <point x="52" y="185" type="line"/>
      <point x="52" y="220" type="line"/>
      <point x="448" y="220" type="line"/>
    </contour>
  </outline>
</glyph>
<glyph name="numero" format="2">
  <advance width="1403"/>
  <unicode hex="2116"/>
  <outline>
    <contour>
      <point x="949" y="184" type="line"/>
      <point x="1336" y="184" type="line"/>
      <point x="1336" y="148" type="line"/>
      <point x="949" y="148" type="line"/>
    </contour>
    <component base="N"/>
    <component base="ordmasculine" xOffset="863"/>
  </outline>
</glyph>
<glyph name="summation" format="2">
  <advance width="591"/>
  <unicode hex="2211"/>
  <outline>
    <contour>
      <point x="23" y="-223" type="line"/>
      <point x="23" y="-193" type="line"/>
      <point x="334" y="285" type="line"/>
      <point x="323" y="241" type="line"/>
      <point x="23" y="684" type="line"/>
      <point x="23" y="710" type="line"/>
      <point x="539" y="710" type="line"/>
      <point x="539" y="521" type="line"/>
      <point x="496" y="521" type="line"/>
      <point x="482" y="636" type="line" smooth="yes"/>
      <point x="478" y="672"/>
      <point x="441" y="681"/>
      <point x="350" y="681" type="curve" smooth="yes"/>
      <point x="72" y="681" type="line"/>
      <point x="64" y="710" type="line"/>
      <point x="360" y="272" type="line"/>
      <point x="360" y="238" type="line"/>
      <point x="64" y="-211" type="line"/>
      <point x="62" y="-194" type="line"/>
      <point x="374" y="-194" type="line" smooth="yes"/>
      <point x="465" y="-194"/>
      <point x="503" y="-185"/>
      <point x="507" y="-149" type="curve" smooth="yes"/>
      <point x="520" y="-42" type="line"/>
      <point x="564" y="-42" type="line"/>
      <point x="564" y="-223" type="line"/>
    </contour>
  </outline>
</glyph>
<glyph name="lozenge" format="2">
  <advance width="736"/>
  <unicode hex="25CA"/>
  <outline>
    <contour>
      <point x="343" y="8" type="line"/>
      <point x="393" y="8" type="line"/>
      <point x="96" y="375" type="line"/>
      <point x="93" y="332" type="line"/>
      <point x="393" y="702" type="line"/>
      <point x="343" y="702" type="line"/>
      <point x="644" y="332" type="line"/>
      <point x="640" y="375" type="line"/>
    </contour>
    <contour>
      <point x="343" y="0" type="line"/>
      <point x="393" y="0" type="line"/>
      <point x="673" y="343" type="line"/>
      <point x="673" y="367" type="line"/>
      <point x="393" y="710" type="line"/>
      <point x="343" y="710" type="line"/>
      <point x="64" y="367" type="line"/>
      <point x="64" y="343" type="line"/>
    </contour>
  </outline>
</glyph>
<glyph name="AE.alt" format="2">
  <advance width="1112"/>
  <outline>
    <contour>
      <point x="246" y="289" type="line"/>
      <point x="231" y="251" type="line"/>
      <point x="593" y="251" type="line"/>
      <point x="575" y="289" type="line"/>
    </contour>
    <contour>
      <point x="464" y="0" type="line"/>
      <point x="1048" y="0" type="line"/>
      <point x="1048" y="221" type="line"/>
      <point x="1000" y="221" type="line"/>
      <point x="984" y="84" type="line" smooth="yes"/>
      <point x="980" y="48"/>
      <point x="943" y="39"/>
      <point x="852" y="39" type="curve"/>
      <point x="616" y="39" type="line"/>
      <point x="616" y="671" type="line"/>
      <point x="828" y="671" type="line" smooth="yes"/>
      <point x="919" y="671"/>
      <point x="955" y="662"/>
      <point x="960" y="626" type="curve" smooth="yes"/>
      <point x="974" y="514" type="line"/>
      <point x="1020" y="514" type="line"/>
      <point x="1020" y="710" type="line"/>
      <point x="344" y="710" type="line"/>
      <point x="344" y="666" type="line"/>
      <point x="356" y="666" type="line" smooth="yes"/>
      <point x="408" y="666"/>
      <point x="446" y="659"/>
      <point x="446" y="630" type="curve"/>
      <point x="111" y="108" type="line"/>
      <point x="85" y="57"/>
      <point x="65" y="44"/>
      <point x="22" y="44" type="curve" smooth="yes"/>
      <point x="15" y="44" type="line"/>
      <point x="15" y="0" type="line"/>
      <point x="251" y="0" type="line"/>
      <point x="251" y="44" type="line"/>
      <point x="240" y="44" type="line" smooth="yes"/>
      <point x="181" y="44"/>
      <point x="145" y="54"/>
      <point x="145" y="67" type="curve"/>
      <point x="522" y="669" type="line"/>
      <point x="565" y="669" type="line"/>
      <point x="565" y="84" type="line" smooth="yes"/>
      <point x="565" y="50"/>
      <point x="527" y="44"/>
      <point x="476" y="44" type="curve" smooth="yes"/>
      <point x="464" y="44" type="line"/>
    </contour>
    <contour>
      <point x="586" y="382" type="line"/>
      <point x="586" y="343" type="line"/>
      <point x="799" y="343" type="line" smooth="yes"/>
      <point x="830" y="343"/>
      <point x="841" y="318"/>
      <point x="841" y="284" type="curve" smooth="yes"/>
      <point x="841" y="264" type="line"/>
      <point x="887" y="264" type="line"/>
      <point x="887" y="462" type="line"/>
      <point x="841" y="462" type="line"/>
      <point x="841" y="442" type="line" smooth="yes"/>
      <point x="841" y="407"/>
      <point x="830" y="382"/>
      <point x="799" y="382" type="curve" smooth="yes"/>
    </contour>
  </outline>
</glyph>
<glyph name="E.alt" format="2">
  <advance width="709"/>
  <outline>
    <contour>
      <point x="644" y="221" type="line"/>
      <point x="596" y="221" type="line"/>
      <point x="581" y="84" type="line" smooth="yes"/>
      <point x="576" y="48"/>
      <point x="539" y="39"/>
      <point x="448" y="39" type="curve" smooth="yes"/>
      <point x="207" y="39" type="line"/>
      <point x="207" y="671" type="line"/>
      <point x="424" y="671" type="line" smooth="yes"/>
      <point x="515" y="671"/>
      <point x="551" y="662"/>
      <point x="556" y="626" type="curve" smooth="yes"/>
      <point x="570" y="514" type="line"/>
      <point x="616" y="514" type="line"/>
      <point x="616" y="710" type="line"/>
      <point x="54" y="710" type="line"/>
      <point x="54" y="666" type="line"/>
      <point x="66" y="666" type="line" smooth="yes"/>
      <point x="118" y="666"/>
      <point x="156" y="659"/>
      <point x="156" y="630" type="curve" smooth="yes"/>
      <point x="156" y="80" type="line" smooth="yes"/>
      <point x="156" y="51"/>
      <point x="118" y="44"/>
      <point x="66" y="44" type="curve" smooth="yes"/>
      <point x="54" y="44" type="line"/>
      <point x="54" y="0" type="line"/>
      <point x="644" y="0" type="line"/>
    </contour>
    <contour>
      <point x="182" y="382" type="line"/>
      <point x="182" y="343" type="line"/>
      <point x="395" y="343" type="line" smooth="yes"/>
      <point x="426" y="343"/>
      <point x="437" y="318"/>
      <point x="437" y="284" type="curve" smooth="yes"/>
      <point x="437" y="264" type="line"/>
      <point x="483" y="264" type="line"/>
      <point x="483" y="462" type="line"/>
      <point x="437" y="462" type="line"/>
      <point x="437" y="442" type="line" smooth="yes"/>
      <point x="437" y="407"/>
      <point x="426" y="382"/>
      <point x="395" y="382" type="curve" smooth="yes"/>
    </contour>
  </outline>
</glyph>
<glyph name="at.uc" format="2">
  <advance width="974"/>
  <outline>
    <contour>
      <point x="486" y="10" type="curve" smooth="yes"/>
      <point x="248" y="10"/>
      <point x="125" y="122"/>
      <point x="125" y="317" type="curve" smooth="yes"/>
      <point x="125" y="566"/>
      <point x="296" y="710"/>
      <point x="553" y="710" type="curve" smooth="yes"/>
      <point x="772" y="710"/>
      <point x="873" y="603"/>
      <point x="873" y="436" type="curve" smooth="yes"/>
      <point x="873" y="261"/>
      <point x="813" y="193"/>
      <point x="728" y="193" type="curve" smooth="yes"/>
      <point x="657" y="193"/>
      <point x="623" y="223"/>
      <point x="633" y="279" type="curve"/>
      <point x="686" y="568" type="line"/>
      <point x="663" y="568" type="line"/>
      <point x="624" y="471" type="line"/>
      <point x="620" y="481" type="line"/>
      <point x="578" y="251" type="line"/>
      <point x="588" y="255" type="line"/>
      <point x="608" y="200"/>
      <point x="624" y="155"/>
      <point x="722" y="155" type="curve" smooth="yes"/>
      <point x="829" y="155"/>
      <point x="924" y="240"/>
      <point x="924" y="436" type="curve" smooth="yes"/>
      <point x="924" y="634"/>
      <point x="791" y="745"/>
      <point x="553" y="745" type="curve" smooth="yes"/>
      <point x="276" y="745"/>
      <point x="73" y="589"/>
      <point x="73" y="318" type="curve" smooth="yes"/>
      <point x="73" y="94"/>
      <point x="228" y="-25"/>
      <point x="486" y="-25" type="curve" smooth="yes"/>
      <point x="615" y="-25"/>
      <point x="719" y="2"/>
      <point x="777" y="28" type="curve"/>
      <point x="764" y="63" type="line"/>
      <point x="707" y="39"/>
      <point x="611" y="10"/>
    </contour>
    <contour>
      <point x="442" y="149" type="curve" smooth="yes"/>
      <point x="529" y="149"/>
      <point x="565" y="185"/>
      <point x="618" y="280" type="curve"/>
      <point x="590" y="284" type="line"/>
      <point x="557" y="228"/>
      <point x="519" y="183"/>
      <point x="448" y="183" type="curve" smooth="yes"/>
      <point x="375" y="183"/>
      <point x="355" y="215"/>
      <point x="355" y="296" type="curve" smooth="yes"/>
      <point x="355" y="427"/>
      <point x="389" y="540"/>
      <point x="512" y="540" type="curve" smooth="yes"/>
      <point x="584" y="540"/>
      <point x="613" y="492"/>
      <point x="638" y="396" type="curve"/>
      <point x="656" y="431" type="line"/>
      <point x="633" y="517"/>
      <point x="601" y="574"/>
      <point x="514" y="574" type="curve" smooth="yes"/>
      <point x="379" y="574"/>
      <point x="299" y="453"/>
      <point x="299" y="301" type="curve" smooth="yes"/>
      <point x="299" y="195"/>
      <point x="357" y="149"/>
    </contour>
  </outline>
</glyph>
<glyph name="cent.proportional" format="2">
  <advance width="614"/>
  <outline>
    <contour>
      <point x="344" y="27" type="curve" smooth="yes"/>
      <point x="199" y="27"/>
      <point x="125" y="104"/>
      <point x="125" y="281" type="curve" smooth="yes"/>
      <point x="125" y="451"/>
      <point x="192" y="537"/>
      <point x="346" y="537" type="curve" smooth="yes"/>
      <point x="425" y="537"/>
      <point x="469" y="528"/>
      <point x="501" y="521" type="curve"/>
      <point x="499" y="544"/>
      <point x="503" y="534"/>
      <point x="477" y="539" type="curve"/>
      <point x="477" y="408" type="line"/>
      <point x="535" y="408" type="line"/>
      <point x="535" y="546" type="line"/>
      <point x="523" y="553"/>
      <point x="458" y="576"/>
      <point x="346" y="576" type="curve" smooth="yes"/>
      <point x="172" y="576"/>
      <point x="73" y="460"/>
      <point x="73" y="281" type="curve" smooth="yes"/>
      <point x="73" y="88"/>
      <point x="181" y="-13"/>
      <point x="344" y="-13" type="curve" smooth="yes"/>
      <point x="443" y="-13"/>
      <point x="525" y="43"/>
      <point x="566" y="125" type="curve"/>
      <point x="527" y="142" type="line"/>
      <point x="491" y="80"/>
      <point x="442" y="27"/>
    </contour>
    <contour>
      <point x="314" y="703" type="line"/>
      <point x="314" y="554" type="line"/>
      <point x="316" y="544" type="line"/>
      <point x="316" y="28" type="line"/>
      <point x="314" y="11" type="line"/>
      <point x="314" y="-166" type="line"/>
      <point x="355" y="-166" type="line"/>
      <point x="355" y="12" type="line"/>
      <point x="353" y="23" type="line"/>
      <point x="353" y="544" type="line"/>
      <point x="355" y="555" type="line"/>
      <point x="355" y="703" type="line"/>
    </contour>
  </outline>
</glyph>
<glyph name="circumflex.uc" format="2">
  <advance width="530"/>
  <anchor x="267" y="694" name="_top"/>
  <outline>
    <contour>
      <point x="304" y="955" type="line"/>
      <point x="445" y="803" type="line"/>
      <point x="445" y="782" type="line"/>
      <point x="421" y="782" type="line"/>
      <point x="251" y="911" type="line"/>
      <point x="282" y="909" type="line"/>
      <point x="123" y="782" type="line"/>
      <point x="98" y="782" type="line"/>
      <point x="98" y="803" type="line"/>
      <point x="239" y="955" type="line"/>
    </contour>
  </outline>
</glyph>
<glyph name="circumflex_grave" format="2">
  <advance width="640"/>
  <anchor x="269" y="564" name="_top"/>
  <outline>
    <contour>
      <point x="469" y="927" type="curve" smooth="yes"/>
      <point x="544" y="820" type="line"/>
      <point x="544" y="801" type="line"/>
      <point x="521" y="801" type="line"/>
      <point x="410" y="899" type="line" smooth="yes"/>
      <point x="383" y="924"/>
      <point x="362" y="939"/>
      <point x="362" y="961" type="curve" smooth="yes"/>
      <point x="362" y="979"/>
      <point x="379" y="989"/>
      <point x="399" y="989" type="curve" smooth="yes"/>
      <point x="433" y="989"/>
      <point x="445" y="963"/>
    </contour>
    <component base="circumflex"/>
  </outline>
</glyph>
<glyph name="circumflex_tilde" format="2">
  <advance width="530"/>
  <anchor x="260" y="551" name="_top"/>
  <outline>
    <contour>
      <point x="336" y="879" type="curve" smooth="yes"/>
      <point x="386" y="879"/>
      <point x="414" y="902"/>
      <point x="440" y="1014" type="curve"/>
      <point x="396" y="1024" type="line"/>
      <point x="380" y="961"/>
      <point x="368" y="925"/>
      <point x="338" y="925" type="curve" smooth="yes"/>
      <point x="289" y="925"/>
      <point x="279" y="1019"/>
      <point x="196" y="1019" type="curve" smooth="yes"/>
      <point x="141" y="1019"/>
      <point x="109" y="991"/>
      <point x="88" y="888" type="curve"/>
      <point x="133" y="878" type="line"/>
      <point x="148" y="941"/>
      <point x="160" y="972"/>
      <point x="190" y="972" type="curve" smooth="yes"/>
      <point x="242" y="972"/>
      <point x="254" y="879"/>
    </contour>
    <contour>
      <point x="294" y="816" type="line"/>
      <point x="427" y="677" type="line"/>
      <point x="427" y="656" type="line"/>
      <point x="406" y="656" type="line"/>
      <point x="248" y="772" type="line"/>
      <point x="270" y="770" type="line"/>
      <point x="124" y="656" type="line"/>
      <point x="102" y="656" type="line"/>
      <point x="102" y="677" type="line"/>
      <point x="234" y="816" type="line"/>
    </contour>
  </outline>
</glyph>
<glyph name="circumflex_tilde.uc" format="2">
  <advance width="530"/>
  <anchor x="267" y="694" name="_top"/>
  <outline>
    <contour>
      <point x="304" y="946" type="line"/>
      <point x="445" y="803" type="line"/>
      <point x="445" y="782" type="line"/>
      <point x="421" y="782" type="line"/>
      <point x="252" y="902" type="line"/>
      <point x="280" y="900" type="line"/>
      <point x="122" y="782" type="line"/>
      <point x="97" y="782" type="line"/>
      <point x="97" y="803" type="line"/>
      <point x="238" y="946" type="line"/>
    </contour>
    <contour>
      <point x="343" y="1002" type="curve" smooth="yes"/>
      <point x="393" y="1002"/>
      <point x="430" y="1029"/>
      <point x="455" y="1142" type="curve"/>
      <point x="409" y="1152" type="line"/>
      <point x="393" y="1089"/>
      <point x="380" y="1051"/>
      <point x="345" y="1051" type="curve" smooth="yes"/>
      <point x="296" y="1051"/>
      <point x="273" y="1147"/>
      <point x="191" y="1147" type="curve" smooth="yes"/>
      <point x="135" y="1147"/>
      <point x="95" y="1114"/>
      <point x="75" y="1011" type="curve"/>
      <point x="121" y="1001" type="line"/>
      <point x="136" y="1063"/>
      <point x="149" y="1096"/>
      <point x="184" y="1096" type="curve" smooth="yes"/>
      <point x="237" y="1096"/>
      <point x="261" y="1002"/>
    </contour>
  </outline>
</glyph>
<glyph name="dollar.altprop" format="2">
  <advance width="639"/>
  <outline>
    <contour>
      <point x="324" y="52" type="curve" smooth="yes"/>
      <point x="213" y="52"/>
      <point x="154" y="79"/>
      <point x="111" y="107" type="curve"/>
      <point x="94" y="114"/>
      <point x="99" y="90"/>
      <point x="125" y="71" type="curve"/>
      <point x="125" y="238" type="line"/>
      <point x="72" y="238" type="line"/>
      <point x="72" y="83" type="line"/>
      <point x="120" y="48"/>
      <point x="203" y="14"/>
      <point x="325" y="14" type="curve" smooth="yes"/>
      <point x="483" y="14"/>
      <point x="566" y="66"/>
      <point x="566" y="206" type="curve"/>
      <point x="566" y="325"/>
      <point x="442" y="362"/>
      <point x="345" y="383" type="curve" smooth="yes"/>
      <point x="237" y="406"/>
      <point x="142" y="409"/>
      <point x="142" y="532" type="curve" smooth="yes"/>
      <point x="142" y="617"/>
      <point x="199" y="657"/>
      <point x="327" y="657" type="curve" smooth="yes"/>
      <point x="401" y="657"/>
      <point x="471" y="640"/>
      <point x="498" y="622" type="curve"/>
      <point x="506" y="623"/>
      <point x="496" y="663"/>
      <point x="477" y="667" type="curve"/>
      <point x="477" y="501" type="line"/>
      <point x="530" y="501" type="line"/>
      <point x="530" y="655" type="line"/>
      <point x="507" y="666"/>
      <point x="447" y="696"/>
      <point x="325" y="696" type="curve" smooth="yes"/>
      <point x="184" y="696"/>
      <point x="90" y="640"/>
      <point x="90" y="529" type="curve" smooth="yes"/>
      <point x="90" y="389"/>
      <point x="207" y="372"/>
      <point x="302" y="351" type="curve" smooth="yes"/>
      <point x="410" y="325"/>
      <point x="514" y="313"/>
      <point x="514" y="197" type="curve"/>
      <point x="514" y="92"/>
      <point x="460" y="52"/>
    </contour>
    <contour>
      <point x="304" y="817" type="line"/>
      <point x="304" y="683" type="line"/>
      <point x="346" y="680" type="line"/>
      <point x="346" y="817" type="line"/>
    </contour>
    <contour>
      <point x="304" y="32" type="line"/>
      <point x="304" y="-150" type="line"/>
      <point x="346" y="-150" type="line"/>
      <point x="346" y="31" type="line"/>
    </contour>
  </outline>
</glyph>
<glyph name="f_j" format="2">
  <advance width="739"/>
  <outline>
    <contour>
      <point x="566" y="699" type="curve" smooth="yes"/>
      <point x="598" y="699"/>
      <point x="624" y="712"/>
      <point x="624" y="751" type="curve" smooth="yes"/>
      <point x="624" y="790"/>
      <point x="598" y="804"/>
      <point x="566" y="804" type="curve" smooth="yes"/>
      <point x="532" y="804"/>
      <point x="508" y="790"/>
      <point x="508" y="751" type="curve" smooth="yes"/>
      <point x="508" y="712"/>
      <point x="532" y="699"/>
    </contour>
    <contour>
      <point x="51" y="526" type="line"/>
      <point x="470" y="526" type="line"/>
      <point x="470" y="565" type="line"/>
      <point x="51" y="565" type="line"/>
    </contour>
    <contour>
      <point x="438" y="-250" type="curve" smooth="yes"/>
      <point x="540" y="-250"/>
      <point x="607" y="-212"/>
      <point x="607" y="-79" type="curve" smooth="yes"/>
      <point x="607" y="565" type="line"/>
      <point x="453" y="565" type="line"/>
      <point x="407" y="526" type="line"/>
      <point x="417" y="526" type="line" smooth="yes"/>
      <point x="472" y="526"/>
      <point x="556" y="514"/>
      <point x="556" y="483" type="curve" smooth="yes"/>
      <point x="556" y="-79" type="line" smooth="yes"/>
      <point x="556" y="-189"/>
      <point x="515" y="-209"/>
      <point x="438" y="-209" type="curve" smooth="yes"/>
      <point x="391" y="-209"/>
      <point x="357" y="-200"/>
      <point x="339" y="-195" type="curve"/>
      <point x="339" y="-240" type="line"/>
      <point x="356" y="-245"/>
      <point x="392" y="-250"/>
    </contour>
    <contour>
      <point x="359" y="0" type="line"/>
      <point x="359" y="37" type="line"/>
      <point x="319" y="37" type="line" smooth="yes"/>
      <point x="286" y="37"/>
      <point x="223" y="40"/>
      <point x="223" y="47" type="curve" smooth="yes"/>
      <point x="223" y="653" type="line" smooth="yes"/>
      <point x="223" y="722"/>
      <point x="265" y="748"/>
      <point x="328" y="748" type="curve"/>
      <point x="372" y="748"/>
      <point x="403" y="741"/>
      <point x="422" y="737" type="curve"/>
      <point x="422" y="781" type="line"/>
      <point x="408" y="785"/>
      <point x="372" y="790"/>
      <point x="329" y="790" type="curve"/>
      <point x="246" y="790"/>
      <point x="174" y="755"/>
      <point x="174" y="653" type="curve" smooth="yes"/>
      <point x="174" y="113" type="line" smooth="yes"/>
      <point x="174" y="53"/>
      <point x="139" y="37"/>
      <point x="76" y="37" type="curve" smooth="yes"/>
      <point x="51" y="37" type="line"/>
      <point x="51" y="0" type="line"/>
    </contour>
  </outline>
</glyph>
<glyph name="five.lintab" format="2">
  <advance width="594"/>
  <outline>
    <contour>
      <point x="294" y="-11" type="curve" smooth="yes"/>
      <point x="173" y="-11"/>
      <point x="97" y="45"/>
      <point x="60" y="131" type="curve"/>
      <point x="107" y="149" type="line"/>
      <point x="134" y="89"/>
      <point x="180" y="30"/>
      <point x="294" y="30" type="curve" smooth="yes"/>
      <point x="412" y="30"/>
      <point x="473" y="92"/>
      <point x="473" y="246" type="curve" smooth="yes"/>
      <point x="473" y="377"/>
      <point x="423" y="431"/>
      <point x="334" y="431" type="curve" smooth="yes"/>
      <point x="248" y="431"/>
      <point x="214" y="391"/>
      <point x="176" y="337" type="curve"/>
      <point x="124" y="337" type="line"/>
      <point x="124" y="710" type="line"/>
      <point x="482" y="710" type="line"/>
      <point x="468" y="666" type="line"/>
      <point x="151" y="666" type="line"/>
      <point x="164" y="690" type="line"/>
      <point x="164" y="365" type="line"/>
      <point x="172" y="359"/>
      <point x="164" y="348"/>
      <point x="151" y="343" type="curve"/>
      <point x="197" y="418"/>
      <point x="241" y="472"/>
      <point x="335" y="472" type="curve" smooth="yes"/>
      <point x="463" y="472"/>
      <point x="526" y="391"/>
      <point x="526" y="246" type="curve" smooth="yes"/>
      <point x="526" y="67"/>
      <point x="429" y="-11"/>
    </contour>
  </outline>
</glyph>
<glyph name="five.midprop" format="2">
  <advance width="600"/>
  <outline>
    <contour>
      <point x="293" y="-58" type="curve" smooth="yes"/>
      <point x="164" y="-58"/>
      <point x="80" y="0"/>
      <point x="41" y="85" type="curve"/>
      <point x="88" y="103" type="line"/>
      <point x="118" y="43"/>
      <point x="170" y="-17"/>
      <point x="292" y="-17" type="curve" smooth="yes"/>
      <point x="420" y="-17"/>
      <point x="490" y="47"/>
      <point x="490" y="200" type="curve" smooth="yes"/>
      <point x="490" y="331"/>
      <point x="429" y="389"/>
      <point x="336" y="389" type="curve" smooth="yes"/>
      <point x="237" y="389"/>
      <point x="196" y="346"/>
      <point x="159" y="294" type="curve"/>
      <point x="107" y="294" type="line"/>
      <point x="107" y="667" type="line"/>
      <point x="492" y="667" type="line"/>
      <point x="478" y="622" type="line"/>
      <point x="134" y="622" type="line"/>
      <point x="147" y="647" type="line"/>
      <point x="147" y="310" type="line"/>
      <point x="144" y="304"/>
      <point x="142" y="308"/>
      <point x="136" y="301" type="curve"/>
      <point x="177" y="375"/>
      <point x="238" y="429"/>
      <point x="335" y="429" type="curve" smooth="yes"/>
      <point x="472" y="429"/>
      <point x="543" y="345"/>
      <point x="543" y="200" type="curve" smooth="yes"/>
      <point x="543" y="22"/>
      <point x="437" y="-58"/>
    </contour>
  </outline>
</glyph>
<glyph name="five.oldprop" format="2">
  <advance width="600"/>
  <outline>
    <contour>
      <point x="293" y="-90" type="curve" smooth="yes"/>
      <point x="163" y="-90"/>
      <point x="80" y="-33"/>
      <point x="41" y="53" type="curve"/>
      <point x="88" y="71" type="line"/>
      <point x="118" y="11"/>
      <point x="169" y="-50"/>
      <point x="292" y="-50" type="curve" smooth="yes"/>
      <point x="420" y="-50"/>
      <point x="489" y="16"/>
      <point x="489" y="170" type="curve" smooth="yes"/>
      <point x="489" y="302"/>
      <point x="429" y="361"/>
      <point x="336" y="361" type="curve" smooth="yes"/>
      <point x="237" y="361"/>
      <point x="196" y="318"/>
      <point x="159" y="266" type="curve"/>
      <point x="107" y="266" type="line"/>
      <point x="107" y="639" type="line"/>
      <point x="492" y="639" type="line"/>
      <point x="478" y="595" type="line"/>
      <point x="134" y="595" type="line"/>
      <point x="147" y="619" type="line"/>
      <point x="147" y="282" type="line"/>
      <point x="144" y="276"/>
      <point x="142" y="280"/>
      <point x="136" y="273" type="curve"/>
      <point x="177" y="347"/>
      <point x="238" y="401"/>
      <point x="334" y="401" type="curve" smooth="yes"/>
      <point x="472" y="401"/>
      <point x="542" y="316"/>
      <point x="542" y="170" type="curve" smooth="yes"/>
      <point x="542" y="-9"/>
      <point x="437" y="-90"/>
    </contour>
  </outline>
</glyph>
<glyph name="five.oldtab" format="2">
  <advance width="594"/>
  <outline>
    <contour>
      <point x="297" y="-90" type="curve" smooth="yes"/>
      <point x="174" y="-90"/>
      <point x="99" y="-35"/>
      <point x="62" y="47" type="curve"/>
      <point x="108" y="67" type="line"/>
      <point x="135" y="8"/>
      <point x="181" y="-50"/>
      <point x="297" y="-50" type="curve" smooth="yes"/>
      <point x="415" y="-50"/>
      <point x="476" y="15"/>
      <point x="476" y="167" type="curve" smooth="yes"/>
      <point x="476" y="298"/>
      <point x="425" y="356"/>
      <point x="335" y="356" type="curve" smooth="yes"/>
      <point x="248" y="356"/>
      <point x="214" y="316"/>
      <point x="177" y="264" type="curve"/>
      <point x="125" y="264" type="line"/>
      <point x="125" y="639" type="line"/>
      <point x="485" y="639" type="line"/>
      <point x="471" y="595" type="line"/>
      <point x="153" y="595" type="line"/>
      <point x="165" y="619" type="line"/>
      <point x="165" y="292" type="line"/>
      <point x="174" y="284"/>
      <point x="164" y="273"/>
      <point x="152" y="276" type="curve"/>
      <point x="197" y="345"/>
      <point x="244" y="396"/>
      <point x="337" y="396" type="curve" smooth="yes"/>
      <point x="466" y="396"/>
      <point x="529" y="312"/>
      <point x="529" y="167" type="curve" smooth="yes"/>
      <point x="529" y="-11"/>
      <point x="432" y="-90"/>
    </contour>
  </outline>
</glyph>
<glyph name="four.midprop" format="2">
  <advance width="632"/>
  <outline>
    <contour>
      <point x="54" y="151" type="line"/>
      <point x="608" y="151" type="line"/>
      <point x="608" y="192" type="line"/>
      <point x="84" y="192" type="line"/>
      <point x="81" y="177" type="line"/>
      <point x="428" y="666" type="line"/>
      <point x="425" y="667" type="line"/>
      <point x="386" y="667" type="line"/>
      <point x="54" y="204" type="line"/>
    </contour>
    <contour>
      <point x="467" y="-50" type="line"/>
      <point x="467" y="667" type="line"/>
      <point x="402" y="667" type="line"/>
      <point x="419" y="655" type="line"/>
      <point x="419" y="-50" type="line"/>
    </contour>
  </outline>
</glyph>
<glyph name="lira.altprop" format="2">
  <advance width="665"/>
  <outline>
    <contour>
      <point x="69" y="472" type="line"/>
      <point x="69" y="436" type="line"/>
      <point x="486" y="436" type="line"/>
      <point x="486" y="472" type="line"/>
    </contour>
    <contour>
      <point x="69" y="291" type="line"/>
      <point x="69" y="256" type="line"/>
      <point x="486" y="256" type="line"/>
      <point x="486" y="291" type="line"/>
    </contour>
    <contour>
      <point x="62" y="0" type="line"/>
      <point x="603" y="0" type="line"/>
      <point x="603" y="192" type="line"/>
      <point x="558" y="192" type="line"/>
      <point x="542" y="81" type="line" smooth="yes"/>
      <point x="537" y="45"/>
      <point x="501" y="36"/>
      <point x="410" y="36" type="curve" smooth="yes"/>
      <point x="92" y="36" type="line"/>
      <point x="97" y="19" type="line"/>
      <point x="216" y="77"/>
      <point x="275" y="147"/>
      <point x="275" y="245" type="curve" smooth="yes"/>
      <point x="275" y="401"/>
      <point x="178" y="456"/>
      <point x="178" y="558" type="curve" smooth="yes"/>
      <point x="178" y="661"/>
      <point x="257" y="701"/>
      <point x="373" y="701" type="curve" smooth="yes"/>
      <point x="449" y="701"/>
      <point x="505" y="694"/>
      <point x="549" y="667" type="curve"/>
      <point x="545" y="686"/>
      <point x="537" y="711"/>
      <point x="522" y="713" type="curve"/>
      <point x="522" y="572" type="line"/>
      <point x="570" y="572" type="line"/>
      <point x="570" y="699" type="line"/>
      <point x="534" y="719"/>
      <point x="479" y="735"/>
      <point x="375" y="735" type="curve" smooth="yes"/>
      <point x="229" y="735"/>
      <point x="125" y="679"/>
      <point x="125" y="551" type="curve" smooth="yes"/>
      <point x="125" y="437"/>
      <point x="228" y="383"/>
      <point x="228" y="243" type="curve" smooth="yes"/>
      <point x="228" y="142"/>
      <point x="157" y="81"/>
      <point x="62" y="32" type="curve"/>
    </contour>
  </outline>
</glyph>
<glyph name="liraTurkish" format="2">
  <advance width="594"/>
  <outline>
    <contour>
      <point x="40" y="419" type="line"/>
      <point x="40" y="380" type="line"/>
      <point x="467" y="570" type="line"/>
      <point x="467" y="609" type="line"/>
    </contour>
    <contour>
      <point x="40" y="230" type="line"/>
      <point x="40" y="191" type="line"/>
      <point x="467" y="381" type="line"/>
      <point x="467" y="420" type="line"/>
    </contour>
    <contour>
      <point x="333" y="35" type="curve" smooth="yes"/>
      <point x="197" y="35" type="line"/>
      <point x="197" y="638" type="line" smooth="yes"/>
      <point x="197" y="667"/>
      <point x="237" y="674"/>
      <point x="280" y="674" type="curve" smooth="yes"/>
      <point x="287" y="674" type="line"/>
      <point x="287" y="710" type="line"/>
      <point x="46" y="710" type="line"/>
      <point x="46" y="674" type="line"/>
      <point x="61" y="674" type="line" smooth="yes"/>
      <point x="113" y="674"/>
      <point x="148" y="667"/>
      <point x="148" y="638" type="curve" smooth="yes"/>
      <point x="148" y="72" type="line" smooth="yes"/>
      <point x="148" y="43"/>
      <point x="113" y="36"/>
      <point x="61" y="36" type="curve" smooth="yes"/>
      <point x="46" y="36" type="line"/>
      <point x="46" y="0" type="line"/>
      <point x="297" y="0" type="line" smooth="yes"/>
      <point x="501" y="0"/>
      <point x="551" y="96"/>
      <point x="568" y="255" type="curve"/>
      <point x="518" y="263" type="line"/>
      <point x="508" y="137"/>
      <point x="475" y="35"/>
    </contour>
  </outline>
</glyph>
<glyph name="minus.sup" format="2">
  <advance width="446"/>
  <outline>
    <contour>
      <point x="387" y="584" type="line"/>
      <point x="58" y="584" type="line"/>
      <point x="58" y="550" type="line"/>
      <point x="387" y="550" type="line"/>
    </contour>
  </outline>
</glyph>
<glyph name="nine.lintab" format="2">
  <advance width="594"/>
  <outline>
    <contour>
      <point x="115" y="26" type="line"/>
      <point x="355" y="49"/>
      <point x="481" y="150"/>
      <point x="481" y="430" type="curve" smooth="yes"/>
      <point x="481" y="619"/>
      <point x="418" y="695"/>
      <point x="295" y="695" type="curve" smooth="yes"/>
      <point x="176" y="695"/>
      <point x="131" y="596"/>
      <point x="131" y="486" type="curve" smooth="yes"/>
      <point x="131" y="393"/>
      <point x="158" y="305"/>
      <point x="271" y="305" type="curve" smooth="yes"/>
      <point x="374" y="305"/>
      <point x="417" y="354"/>
      <point x="503" y="508" type="curve"/>
      <point x="502" y="470" type="line"/>
      <point x="439" y="324"/>
      <point x="371" y="264"/>
      <point x="269" y="264" type="curve" smooth="yes"/>
      <point x="144" y="264"/>
      <point x="77" y="347"/>
      <point x="77" y="486" type="curve" smooth="yes"/>
      <point x="77" y="627"/>
      <point x="156" y="735"/>
      <point x="296" y="735" type="curve" smooth="yes"/>
      <point x="442" y="735"/>
      <point x="532" y="648"/>
      <point x="532" y="430" type="curve" smooth="yes"/>
      <point x="532" y="128"/>
      <point x="398" y="14"/>
      <point x="126" y="-15" type="curve"/>
    </contour>
  </outline>
</glyph>
<glyph name="nine.midprop" format="2">
  <advance width="598"/>
  <outline>
    <contour>
      <point x="95" y="-27" type="line"/>
      <point x="348" y="-5"/>
      <point x="484" y="112"/>
      <point x="484" y="378" type="curve" smooth="yes"/>
      <point x="484" y="568"/>
      <point x="417" y="642"/>
      <point x="281" y="642" type="curve" smooth="yes"/>
      <point x="151" y="642"/>
      <point x="101" y="547"/>
      <point x="101" y="435" type="curve" smooth="yes"/>
      <point x="101" y="340"/>
      <point x="130" y="252"/>
      <point x="253" y="252" type="curve" smooth="yes"/>
      <point x="366" y="252"/>
      <point x="412" y="302"/>
      <point x="506" y="456" type="curve"/>
      <point x="505" y="418" type="line"/>
      <point x="438" y="272"/>
      <point x="364" y="212"/>
      <point x="255" y="212" type="curve" smooth="yes"/>
      <point x="120" y="212"/>
      <point x="47" y="295"/>
      <point x="47" y="435" type="curve" smooth="yes"/>
      <point x="47" y="578"/>
      <point x="132" y="683"/>
      <point x="284" y="683" type="curve" smooth="yes"/>
      <point x="439" y="683"/>
      <point x="535" y="597"/>
      <point x="535" y="378" type="curve" smooth="yes"/>
      <point x="535" y="102"/>
      <point x="391" y="-39"/>
      <point x="105" y="-67" type="curve"/>
    </contour>
  </outline>
</glyph>
<glyph name="nine.oldprop" format="2">
  <advance width="598"/>
  <outline>
    <contour>
      <point x="95" y="-61" type="line"/>
      <point x="348" y="-39"/>
      <point x="484" y="78"/>
      <point x="484" y="344" type="curve" smooth="yes"/>
      <point x="484" y="534"/>
      <point x="417" y="609"/>
      <point x="281" y="609" type="curve" smooth="yes"/>
      <point x="151" y="609"/>
      <point x="101" y="513"/>
      <point x="101" y="401" type="curve" smooth="yes"/>
      <point x="101" y="306"/>
      <point x="130" y="219"/>
      <point x="253" y="219" type="curve" smooth="yes"/>
      <point x="366" y="219"/>
      <point x="412" y="268"/>
      <point x="506" y="422" type="curve"/>
      <point x="505" y="384" type="line"/>
      <point x="438" y="238"/>
      <point x="364" y="178"/>
      <point x="255" y="178" type="curve" smooth="yes"/>
      <point x="120" y="178"/>
      <point x="47" y="261"/>
      <point x="47" y="401" type="curve" smooth="yes"/>
      <point x="47" y="544"/>
      <point x="132" y="649"/>
      <point x="284" y="649" type="curve" smooth="yes"/>
      <point x="439" y="649"/>
      <point x="535" y="563"/>
      <point x="535" y="344" type="curve" smooth="yes"/>
      <point x="535" y="69"/>
      <point x="391" y="-73"/>
      <point x="105" y="-101" type="curve"/>
    </contour>
  </outline>
</glyph>
<glyph name="nine.oldtab" format="2">
  <advance width="594"/>
  <outline>
    <contour>
      <point x="118" y="-60" type="line"/>
      <point x="356" y="-38"/>
      <point x="482" y="68"/>
      <point x="482" y="344" type="curve" smooth="yes"/>
      <point x="482" y="534"/>
      <point x="420" y="609"/>
      <point x="296" y="609" type="curve" smooth="yes"/>
      <point x="176" y="609"/>
      <point x="130" y="510"/>
      <point x="130" y="401" type="curve" smooth="yes"/>
      <point x="130" y="307"/>
      <point x="158" y="219"/>
      <point x="270" y="219" type="curve" smooth="yes"/>
      <point x="376" y="219"/>
      <point x="421" y="278"/>
      <point x="503" y="417" type="curve"/>
      <point x="503" y="376" type="line"/>
      <point x="444" y="245"/>
      <point x="375" y="178"/>
      <point x="270" y="178" type="curve" smooth="yes"/>
      <point x="144" y="178"/>
      <point x="76" y="261"/>
      <point x="76" y="401" type="curve" smooth="yes"/>
      <point x="76" y="541"/>
      <point x="156" y="649"/>
      <point x="297" y="649" type="curve" smooth="yes"/>
      <point x="444" y="649"/>
      <point x="533" y="563"/>
      <point x="533" y="344" type="curve" smooth="yes"/>
      <point x="533" y="45"/>
      <point x="399" y="-72"/>
      <point x="128" y="-101" type="curve"/>
    </contour>
  </outline>
</glyph>
<glyph name="peso.proportional" format="2">
  <advance width="692"/>
  <outline>
    <contour>
      <point x="57" y="480" type="line"/>
      <point x="57" y="451" type="line"/>
      <point x="166" y="451" type="line"/>
      <point x="167" y="448" type="line"/>
      <point x="523" y="448" type="line"/>
      <point x="530" y="451" type="line"/>
      <point x="673" y="451" type="line"/>
      <point x="673" y="480" type="line"/>
      <point x="543" y="480" type="line"/>
      <point x="517" y="484" type="line"/>
      <point x="164" y="484" type="line"/>
      <point x="170" y="480" type="line"/>
    </contour>
    <contour>
      <point x="57" y="0" type="line"/>
      <point x="274" y="0" type="line"/>
      <point x="274" y="36" type="line"/>
      <point x="256" y="36" type="line" smooth="yes"/>
      <point x="224" y="36"/>
      <point x="185" y="39"/>
      <point x="185" y="46" type="curve" smooth="yes"/>
      <point x="185" y="219" type="line"/>
      <point x="286" y="219" type="line" smooth="yes"/>
      <point x="453" y="219"/>
      <point x="563" y="310"/>
      <point x="563" y="469" type="curve" smooth="yes"/>
      <point x="563" y="633"/>
      <point x="450" y="710"/>
      <point x="293" y="710" type="curve" smooth="yes"/>
      <point x="57" y="710" type="line"/>
      <point x="57" y="674" type="line"/>
      <point x="68" y="674" type="line" smooth="yes"/>
      <point x="107" y="674"/>
      <point x="135" y="667"/>
      <point x="135" y="638" type="curve" smooth="yes"/>
      <point x="135" y="72" type="line" smooth="yes"/>
      <point x="135" y="43"/>
      <point x="107" y="36"/>
      <point x="68" y="36" type="curve" smooth="yes"/>
      <point x="57" y="36" type="line"/>
    </contour>
    <contour>
      <point x="292" y="677" type="line" smooth="yes"/>
      <point x="441" y="677"/>
      <point x="514" y="601"/>
      <point x="514" y="468" type="curve" smooth="yes"/>
      <point x="514" y="336"/>
      <point x="441" y="253"/>
      <point x="286" y="253" type="curve" smooth="yes"/>
      <point x="185" y="253" type="line"/>
      <point x="185" y="677" type="line"/>
    </contour>
  </outline>
</glyph>
<glyph name="plus.sup" format="2">
  <advance width="446"/>
  <outline>
    <contour>
      <point x="200" y="725" type="line"/>
      <point x="200" y="409" type="line"/>
      <point x="245" y="409" type="line"/>
      <point x="245" y="725" type="line"/>
    </contour>
    <contour>
      <point x="387" y="584" type="line"/>
      <point x="58" y="584" type="line"/>
      <point x="58" y="550" type="line"/>
      <point x="387" y="550" type="line"/>
    </contour>
  </outline>
</glyph>
<glyph name="three.midprop" format="2">
  <advance width="599"/>
  <outline>
    <contour>
      <point x="324" y="330" type="line"/>
      <point x="482" y="316"/>
      <point x="543" y="256"/>
      <point x="543" y="154" type="curve" smooth="yes"/>
      <point x="543" y="9"/>
      <point x="435" y="-55"/>
      <point x="293" y="-55" type="curve" smooth="yes"/>
      <point x="151" y="-55"/>
      <point x="71" y="6"/>
      <point x="35" y="103" type="curve"/>
      <point x="79" y="123" type="line"/>
      <point x="107" y="55"/>
      <point x="162" y="-15"/>
      <point x="293" y="-15" type="curve" smooth="yes"/>
      <point x="412" y="-15"/>
      <point x="486" y="31"/>
      <point x="486" y="152" type="curve" smooth="yes"/>
      <point x="486" y="257"/>
      <point x="421" y="312"/>
      <point x="269" y="312" type="curve" smooth="yes"/>
      <point x="185" y="312" type="line"/>
      <point x="185" y="350" type="line"/>
      <point x="255" y="350" type="line" smooth="yes"/>
      <point x="373" y="350"/>
      <point x="462" y="396"/>
      <point x="462" y="510" type="curve" smooth="yes"/>
      <point x="462" y="609"/>
      <point x="401" y="642"/>
      <point x="301" y="642" type="curve" smooth="yes"/>
      <point x="195" y="642"/>
      <point x="141" y="610"/>
      <point x="122" y="595" type="curve"/>
      <point x="109" y="600"/>
      <point x="129" y="627"/>
      <point x="159" y="631" type="curve"/>
      <point x="159" y="479" type="line"/>
      <point x="102" y="479" type="line"/>
      <point x="102" y="631" type="line"/>
      <point x="130" y="649"/>
      <point x="198" y="683"/>
      <point x="300" y="683" type="curve" smooth="yes"/>
      <point x="440" y="683"/>
      <point x="515" y="634"/>
      <point x="515" y="522" type="curve" smooth="yes"/>
      <point x="515" y="416"/>
      <point x="435" y="356"/>
      <point x="326" y="336" type="curve"/>
      <point x="325" y="347" type="line"/>
      <point x="325" y="315" type="line"/>
    </contour>
  </outline>
</glyph>
<glyph name="two.midprop" format="2">
  <advance width="605"/>
  <outline>
    <contour>
      <point x="359" y="33" type="line" smooth="yes"/>
      <point x="446" y="33"/>
      <point x="481" y="40"/>
      <point x="484" y="74" type="curve" smooth="yes"/>
      <point x="494" y="182" type="line"/>
      <point x="541" y="182" type="line"/>
      <point x="541" y="0" type="line"/>
      <point x="48" y="0" type="line"/>
      <point x="48" y="41" type="line"/>
      <point x="312" y="255"/>
      <point x="464" y="347"/>
      <point x="464" y="502" type="curve" smooth="yes"/>
      <point x="464" y="611"/>
      <point x="401" y="638"/>
      <point x="301" y="638" type="curve" smooth="yes"/>
      <point x="208" y="638"/>
      <point x="152" y="611"/>
      <point x="116" y="588" type="curve"/>
      <point x="119" y="600"/>
      <point x="154" y="642"/>
      <point x="152" y="631" type="curve" smooth="yes"/>
      <point x="152" y="460" type="line"/>
      <point x="88" y="460" type="line"/>
      <point x="88" y="622" type="line"/>
      <point x="124" y="641"/>
      <point x="196" y="683"/>
      <point x="299" y="683" type="curve" smooth="yes"/>
      <point x="443" y="683"/>
      <point x="519" y="629"/>
      <point x="519" y="500" type="curve" smooth="yes"/>
      <point x="519" y="338"/>
      <point x="309" y="205"/>
      <point x="81" y="27" type="curve"/>
      <point x="65" y="6"/>
      <point x="62" y="27"/>
      <point x="77" y="33" type="curve"/>
    </contour>
  </outline>
</glyph>
<glyph name="whiterightpointingtriangle" format="2">
  <advance width="607"/>
  <outline>
    <contour>
      <point x="138" y="545" type="line"/>
      <point x="138" y="10" type="line"/>
      <point x="533" y="277" type="line"/>
    </contour>
    <contour>
      <point x="196" y="460" type="line"/>
      <point x="179" y="453" type="line"/>
      <point x="449" y="272" type="line"/>
      <point x="449" y="283" type="line"/>
      <point x="179" y="102" type="line"/>
      <point x="196" y="95" type="line"/>
    </contour>
  </outline>
</glyph>
<glyph name="won.proportional" format="2">
  <advance width="886"/>
  <outline>
    <contour>
      <point x="57" y="710" type="line"/>
      <point x="57" y="672" type="line"/>
      <point x="71" y="672" type="line" smooth="yes"/>
      <point x="95" y="672"/>
      <point x="121" y="669"/>
      <point x="128" y="635" type="curve" smooth="yes"/>
      <point x="244" y="0" type="line"/>
      <point x="304" y="0" type="line"/>
      <point x="456" y="703" type="line"/>
      <point x="438" y="707" type="line"/>
      <point x="592" y="0" type="line"/>
      <point x="659" y="0" type="line"/>
      <point x="760" y="629" type="line" smooth="yes"/>
      <point x="765" y="663"/>
      <point x="793" y="672"/>
      <point x="817" y="672" type="curve" smooth="yes"/>
      <point x="831" y="672" type="line"/>
      <point x="831" y="710" type="line"/>
      <point x="670" y="710" type="line"/>
      <point x="670" y="672" type="line"/>
      <point x="685" y="672" type="line" smooth="yes"/>
      <point x="710" y="672"/>
      <point x="723" y="665"/>
      <point x="723" y="654" type="curve"/>
      <point x="622" y="8" type="line"/>
      <point x="633" y="10" type="line"/>
      <point x="480" y="710" type="line"/>
      <point x="417" y="710" type="line"/>
      <point x="267" y="12" type="line"/>
      <point x="285" y="15" type="line"/>
      <point x="172" y="662" type="line"/>
      <point x="172" y="669"/>
      <point x="188" y="672"/>
      <point x="210" y="672" type="curve" smooth="yes"/>
      <point x="225" y="672" type="line"/>
      <point x="225" y="710" type="line"/>
    </contour>
    <contour>
      <point x="381" y="493" type="line"/>
      <point x="36" y="493" type="line"/>
      <point x="36" y="453" type="line"/>
      <point x="191" y="453" type="line"/>
      <point x="186" y="465" type="line"/>
      <point x="384" y="472" type="line"/>
    </contour>
    <contour>
      <point x="850" y="493" type="line"/>
      <point x="513" y="493" type="line"/>
      <point x="510" y="472" type="line"/>
      <point x="715" y="465" type="line"/>
      <point x="706" y="453" type="line"/>
      <point x="850" y="453" type="line"/>
    </contour>
    <contour>
      <point x="332" y="236" type="line"/>
      <point x="570" y="236" type="line"/>
      <point x="563" y="256" type="line"/>
      <point x="454" y="279" type="line"/>
      <point x="342" y="256" type="line"/>
    </contour>
    <contour>
      <point x="200" y="287" type="line"/>
      <point x="36" y="287" type="line"/>
      <point x="36" y="248" type="line"/>
      <point x="212" y="248" type="line"/>
    </contour>
    <contour>
      <point x="682" y="248" type="line"/>
      <point x="850" y="248" type="line"/>
      <point x="850" y="287" type="line"/>
      <point x="693" y="287" type="line"/>
    </contour>
  </outline>
</glyph>
